<svg xmlns="http://www.w3.org/2000/svg" width="302.551" height="195.725" viewBox="0 0 302.551 195.725">
  <g id="Group_4037" data-name="Group 4037" transform="translate(-348 -183.375)">
    <g id="Group_4029" data-name="Group 4029" transform="translate(347.956 183.375)">
      <path id="Path_3627" data-name="Path 3627" d="M134.662,153.921c-.153.077-.307.077-.46.153-1.228.307-27.928,8.67-50.715,6.291-11.969-1.228-8.133-8.67-20.1-7.979-15.038.767-61.994,6.6-63.3,28-1,15.422,15.652,22.327,27.928,25.856,20.1,5.678,39.437,12.736,59.308,19.258,22.02,7.289,44.347,7.059,66.674,2.148a226.73,226.73,0,0,1,50.869-5.141c18.567.23,36.6,6.752,55.242,5.141,7.6-.691,15.652-3.069,20.409-9.054,4.22-5.294,5.064-12.429,9.054-17.954,3.913-5.447,10.435-8.67,12.583-15.422,3.76-12.046-17.417-21.023-26.163-22.787-15.115-3.069-30.383-1.458-45.575-2.916q-21.291-2.072-42.736-3.683c-11.432-.921-22.941-1.688-34.449-2.225C147.322,153.46,140.493,152.386,134.662,153.921Z" transform="translate(0 -35.458)" fill="#e7e6e7"/>
      <g id="Group_4019" data-name="Group 4019" transform="translate(183.893 55.92)">
        <g id="Group_4018" data-name="Group 4018" transform="translate(4.489 5.153)">
          <path id="Path_3628" data-name="Path 3628" d="M263.611,139.829a89.338,89.338,0,0,1-17.263-41.2,70.626,70.626,0,0,1-.384-19.028l.691.077a68.823,68.823,0,0,0,.384,18.8,88.437,88.437,0,0,0,17.11,40.894Z" transform="translate(-245.517 -79.6)" fill="#0c1153"/>
        </g>
        <path id="Path_3629" data-name="Path 3629" d="M246.1,79.034a7.357,7.357,0,0,1-.537-4.22c.153-.767,1-2.072,1.765-1.918s1.151,1.3.921,2.455A7.353,7.353,0,0,1,246.1,79.034Z" transform="translate(-241.01 -72.884)" fill="#0c1153"/>
        <path id="Path_3630" data-name="Path 3630" d="M246.1,84.756a7.016,7.016,0,0,1,1.841-3.376c.537-.537,1.765-1,2.225-.537s.153,1.458-.614,2.225A8.143,8.143,0,0,1,246.1,84.756Z" transform="translate(-241.163 -74.692)" fill="#0c1153"/>
        <path id="Path_3631" data-name="Path 3631" d="M246.6,93.557a5.508,5.508,0,0,1,1.841-2.762c.537-.384,1.688-.537,2.072,0a1.552,1.552,0,0,1-.691,1.995A5.065,5.065,0,0,1,246.6,93.557Z" transform="translate(-241.28 -76.972)" fill="#0c1153"/>
        <path id="Path_3632" data-name="Path 3632" d="M245.162,84.774a5.341,5.341,0,0,1-3.222-.691c-.537-.307-1.074-1.381-.767-1.918a1.506,1.506,0,0,1,2.072-.077A4.749,4.749,0,0,1,245.162,84.774Z" transform="translate(-239.996 -74.941)" fill="#0c1153"/>
        <path id="Path_3633" data-name="Path 3633" d="M255.636,137.554a6.445,6.445,0,0,1-3.529.537c-.691-.077-1.765-.767-1.611-1.458.077-.614,1-1,1.995-.844A6.732,6.732,0,0,1,255.636,137.554Z" transform="translate(-242.183 -87.517)" fill="#0c1153"/>
        <path id="Path_3634" data-name="Path 3634" d="M244.6,93.394a6.869,6.869,0,0,1-3.836-1c-.614-.384-1.381-1.611-1-2.225s1.535-.537,2.378.077A7.538,7.538,0,0,1,244.6,93.394Z" transform="translate(-239.666 -76.809)" fill="#0c1153"/>
        <path id="Path_3635" data-name="Path 3635" d="M245.247,102.585a5.322,5.322,0,0,1-3.606-.537c-.537-.384-1.151-1.534-.691-2.225a1.656,1.656,0,0,1,2.3-.23A4.769,4.769,0,0,1,245.247,102.585Z" transform="translate(-239.927 -79.018)" fill="#0c1153"/>
        <path id="Path_3636" data-name="Path 3636" d="M247.3,102.2a5.423,5.423,0,0,1,1.458-3.376c.46-.46,1.765-.844,2.3-.307a1.715,1.715,0,0,1-.307,2.3A5.932,5.932,0,0,1,247.3,102.2Z" transform="translate(-241.443 -78.79)" fill="#0c1153"/>
        <path id="Path_3637" data-name="Path 3637" d="M257.524,136.693a5.494,5.494,0,0,1,.077-3.529c.23-.691,1.228-1.841,1.841-1.765s.844,1,.46,1.995A8.673,8.673,0,0,1,257.524,136.693Z" transform="translate(-243.764 -86.502)" fill="#0c1153"/>
        <path id="Path_3638" data-name="Path 3638" d="M250.6,119.961a4.839,4.839,0,0,1,1.918-2.225,3.1,3.1,0,0,1,2.225-.46c.46.307.077.921-.691,1.458A8.812,8.812,0,0,1,250.6,119.961Z" transform="translate(-242.211 -83.198)" fill="#0c1153"/>
        <path id="Path_3639" data-name="Path 3639" d="M247.127,111.968a4,4,0,0,1-2.532-.921,2.956,2.956,0,0,1-1-1.841c.153-.46.844-.384,1.535.077A7.324,7.324,0,0,1,247.127,111.968Z" transform="translate(-240.579 -81.266)" fill="#0c1153"/>
        <path id="Path_3640" data-name="Path 3640" d="M253.992,128.724a8.527,8.527,0,0,1-.23-3.683c.153-.537.844-1.151,1.458-.691a2.527,2.527,0,0,1,.537,2.378A2.92,2.92,0,0,1,253.992,128.724Z" transform="translate(-242.917 -84.825)" fill="#0c1153"/>
        <path id="Path_3641" data-name="Path 3641" d="M249.2,120.337a10.744,10.744,0,0,1-4.45-.307c-.691-.23-1.535-1.151-1-1.688a2.976,2.976,0,0,1,2.839-.307A4.976,4.976,0,0,1,249.2,120.337Z" transform="translate(-240.576 -83.343)" fill="#0c1153"/>
        <path id="Path_3642" data-name="Path 3642" d="M252.352,129.876a9.334,9.334,0,0,1-4.143-.307c-.614-.23-1.3-1.074-.767-1.611a2.711,2.711,0,0,1,2.685-.23A3.583,3.583,0,0,1,252.352,129.876Z" transform="translate(-241.431 -85.593)" fill="#0c1153"/>
        <path id="Path_3643" data-name="Path 3643" d="M261.382,144.35a4.787,4.787,0,0,1,.46-2.916c.307-.614,1.228-1.534,1.765-1.534s.614.767.153,1.611A9.09,9.09,0,0,1,261.382,144.35Z" transform="translate(-244.706 -88.482)" fill="#0c1153"/>
        <path id="Path_3644" data-name="Path 3644" d="M248.7,111.929a7.571,7.571,0,0,1,1.458-3.453c.46-.614,1.765-1.534,2.225-1.381.537.153.307,1.151-.384,1.995A11.325,11.325,0,0,1,248.7,111.929Z" transform="translate(-241.768 -80.843)" fill="#0c1153"/>
      </g>
      <path id="Path_3645" data-name="Path 3645" d="M284.551,137.788l.921.153c3.836-19.795,3.3-34.6,2.225-43.58-1.228-9.744-3.376-14.731-3.453-14.961l-.844.384C283.477,79.937,291.916,100.269,284.551,137.788Z" transform="translate(-65.952 -18.481)" fill="#bdddf4"/>
      <path id="Path_3646" data-name="Path 3646" d="M307.4,147.329l.844.384c8.9-20.639,7.672-42.582,7.672-42.812l-.921.077C315,105.13,316.223,126.92,307.4,147.329Z" transform="translate(-71.538 -24.416)" fill="#bdddf4"/>
      <path id="Path_3647" data-name="Path 3647" d="M278.209,140.127l.844.384c4.3-9.974,3.3-18.03,1.765-23.017a23.7,23.7,0,0,0-4.527-8.593l-.691.614C275.677,109.591,286.111,121.636,278.209,140.127Z" transform="translate(-64.136 -25.347)" fill="#bdddf4"/>
      <path id="Path_3648" data-name="Path 3648" d="M281.295,74.945c-3.836.614-6.828,2.225-6.6,3.76.23,1.458,3.529,2.225,7.366,1.611s6.828-2.225,6.6-3.76C288.43,75.1,285.131,74.408,281.295,74.945Z" transform="translate(-63.923 -17.401)" fill="#1a3560"/>
      <path id="Path_3649" data-name="Path 3649" d="M282.97,77.386c-1.228.153-2.148.691-2.072,1.151s1.151.691,2.3.537c1.228-.153,2.148-.691,2.072-1.151C285.272,77.462,284.2,77.232,282.97,77.386Z" transform="translate(-65.368 -18.001)" fill="#fff"/>
      <path id="Path_3650" data-name="Path 3650" d="M316.761,102.964c-1.611.23-2.839.921-2.762,1.534s1.458.921,3.069.691,2.839-.921,2.762-1.534C319.677,102.964,318.3,102.657,316.761,102.964Z" transform="translate(-73.073 -23.937)" fill="#1a3560"/>
      <path id="Path_3651" data-name="Path 3651" d="M317.441,103.894c-.537.077-.921.307-.844.46,0,.23.46.307,1,.23s.921-.307.844-.46S317.978,103.817,317.441,103.894Z" transform="translate(-73.676 -24.177)" fill="#fff"/>
      <path id="Path_3652" data-name="Path 3652" d="M274.3,107.31c-1.918.844-3.222,2.072-2.916,2.839s2.148.691,4.066-.153,3.222-2.072,2.916-2.839C278.061,106.466,276.22,106.543,274.3,107.31Z" transform="translate(-63.145 -24.831)" fill="#1a3560"/>
      <path id="Path_3653" data-name="Path 3653" d="M275.518,108.635c-.614.23-1,.691-.921.921s.691.23,1.3-.077c.614-.23,1-.691.921-.921C276.669,108.328,276.132,108.4,275.518,108.635Z" transform="translate(-63.9 -25.235)" fill="#fff"/>
      <path id="Path_3654" data-name="Path 3654" d="M312.785,155.138c1.074-2.455-.23-4.527-5.447-5.678-5.678-1.228-7.826-.077-12.276,1.458,10.435-7.442,19.948-14.808,8.823-16.035-3.453-.384-7.519.537-13.5,4.373,6.6-7.9,8.977-12.89,4.987-14.117-3.76-1.151-11.355,5.294-19.411,13.887,4.6-7.135,7.289-13.427,5.217-16.342-1.688-2.378-5.294.384-9.437,5.447.153-4.527-1.074-7.212-4.066-6.675-2.762.537-4.987,5.754-6.6,11.969-2.685-9.667-9.667-15.652-16.726-12.66-8.286,3.453-31.15,22.941-27.467,33.989Z" transform="translate(-50.376 -27.928)" fill="#b1d0ed"/>
      <g id="Group_4020" data-name="Group 4020" transform="translate(38.068 56.235)">
        <path id="Path_3655" data-name="Path 3655" d="M102.024,135.344l-.844.307c-7.289-18.8-9.36-33.529-9.821-42.506-.537-9.821.691-15.115.767-15.345l.921.23C92.97,78.26,88.213,99.667,102.024,135.344Z" transform="translate(-59.29 -74.344)" fill="#bdddf4"/>
        <path id="Path_3656" data-name="Path 3656" d="M94.505,138.057l-.767.537C81.309,119.873,78.7,98.007,78.7,97.777l.921-.077C79.7,97.853,82.229,119.49,94.505,138.057Z" transform="translate(-56.376 -78.975)" fill="#bdddf4"/>
        <path id="Path_3657" data-name="Path 3657" d="M108.048,136.55l-.767.537c-5.985-9.054-6.445-17.186-5.754-22.4a24.58,24.58,0,0,1,2.916-9.284l.767.46C105.209,106.014,97,119.671,108.048,136.55Z" transform="translate(-61.632 -80.767)" fill="#bdddf4"/>
        <path id="Path_3658" data-name="Path 3658" d="M90.682,73.3c3.913-.077,7.059,1,7.135,2.532s-3.069,2.839-6.982,2.916-7.059-1-7.135-2.532C83.7,74.68,86.769,73.376,90.682,73.3Z" transform="translate(-57.539 -73.295)" fill="#1a3560"/>
        <path id="Path_3659" data-name="Path 3659" d="M92.225,75.7c1.228,0,2.225.307,2.3.767,0,.46-1,.921-2.225.921s-2.225-.307-2.3-.767C90,76.16,91,75.777,92.225,75.7Z" transform="translate(-59.006 -73.855)" fill="#fff"/>
        <path id="Path_3660" data-name="Path 3660" d="M78.416,95.8c1.611-.077,2.916.46,2.992,1.074,0,.614-1.3,1.151-2.916,1.228s-2.916-.46-2.992-1.074C75.5,96.335,76.8,95.8,78.416,95.8Z" transform="translate(-55.631 -78.531)" fill="#1a3560"/>
        <path id="Path_3661" data-name="Path 3661" d="M79.021,96.8c.537,0,.921.153.921.307,0,.23-.384.384-.921.384s-.921-.153-.921-.307C78.1,96.953,78.484,96.8,79.021,96.8Z" transform="translate(-56.236 -78.766)" fill="#fff"/>
        <path id="Path_3662" data-name="Path 3662" d="M105.159,103.829c1.995.46,3.529,1.458,3.3,2.225s-1.995,1.074-4.066.614c-1.995-.46-3.529-1.458-3.3-2.225C101.323,103.6,103.165,103.369,105.159,103.829Z" transform="translate(-61.582 -80.348)" fill="#1a3560"/>
        <path id="Path_3663" data-name="Path 3663" d="M105.7,105.091c.614.153,1.151.46,1.074.691s-.614.307-1.3.153c-.614-.153-1.151-.46-1.074-.691C104.475,105.091,105.088,105.014,105.7,105.091Z" transform="translate(-62.355 -80.689)" fill="#fff"/>
        <path id="Path_3664" data-name="Path 3664" d="M135.686,132.649c-.384-2.3-8.133-10.665-14.424-11.279-1.841-.153-5.6,2.609-8.823,6.905,5.447-12.583,10.818-28.311-.077-20.332-3.376,2.455-6.905,8.133-10.2,15.038,1.688-9.9,1.381-16.573-2.992-14.194-4.066,2.225-7.442,11.969-10.051,23.4.23-7.826-.844-13.657-4.373-13.81-2.916-.077-4.68,4.373-5.6,10.588-2.378-2.839-5.064-3.453-7.442-.844-2.225,2.455-1.381,7.289.614,12.276-7.826-3.683-17.57-1.765-22.4,5.447-5.678,8.516,69.743,6.061,87.543,4.45l14.5-10.2Z" transform="translate(-49.603 -80.856)" fill="#b1d0ed"/>
        <path id="Path_3665" data-name="Path 3665" d="M110.18,134.843a.282.282,0,0,1,.077-.23h-.077c-.767.307-1.534.153-1.688-.23s.384-.921,1.151-1.151c.077,0,.153-.077.23-.077a.075.075,0,0,1-.077-.077c-.614-.537-.921-1.151-.614-1.458s1-.153,1.611.307l.153.153V132c.153-.767.614-1.3,1-1.3.46.077.691.767.537,1.534,0,.077,0,.153-.077.153h.077c.767-.307,1.534-.153,1.688.23s-.384.921-1.151,1.151c-.077,0-.153.077-.23.077a.075.075,0,0,1,.077.077c.614.46.921,1.151.614,1.458s-1,.153-1.611-.307l-.153-.153V135c-.153.767-.614,1.3-1,1.3C110.257,136.3,110.027,135.61,110.18,134.843Zm1.688-.767a.746.746,0,0,0-.077-1.074.839.839,0,0,0-1.151.077.741.741,0,0,0,.077,1.074A.834.834,0,0,0,111.868,134.076Z" transform="translate(-63.304 -86.656)" fill="#7d8180"/>
      </g>
      <path id="Path_3666" data-name="Path 3666" d="M147.911,89.554a19.487,19.487,0,1,0,22.557-15.345C159.88,72.368,149.753,79.2,147.911,89.554Z" transform="translate(-34.348 -17.203)" fill="#7d8080"/>
      <path id="Path_3667" data-name="Path 3667" d="M170.619,68.5a18.049,18.049,0,1,0,20.869-14.194A17.882,17.882,0,0,0,170.619,68.5Z" transform="translate(-39.64 -12.573)" fill="#7d8080"/>
      <path id="Path_3668" data-name="Path 3668" d="M181.616,49.84c-1.611,9.13,3.99,17.8,12.583,19.335s16.879-4.68,18.491-13.81-3.99-17.8-12.583-19.335C191.59,34.495,183.3,40.71,181.616,49.84Z" transform="translate(-42.197 -8.332)" fill="#7d8080"/>
      <path id="Path_3669" data-name="Path 3669" d="M181.3,77.961A21.909,21.909,0,1,0,206.62,60.7C194.728,58.626,183.372,66.3,181.3,77.961Z" transform="translate(-42.112 -14.049)" fill="#7d8080"/>
      <path id="Path_3670" data-name="Path 3670" d="M157.734,88.635A14.662,14.662,0,1,0,174.69,77.126,14.525,14.525,0,0,0,157.734,88.635Z" transform="translate(-36.652 -17.894)" fill="#7d8080"/>
      <path id="Path_3671" data-name="Path 3671" d="M174.334,72.335A14.662,14.662,0,1,0,191.29,60.826,14.525,14.525,0,0,0,174.334,72.335Z" transform="translate(-40.515 -14.1)" fill="#7d8080"/>
      <path id="Path_3672" data-name="Path 3672" d="M194.132,43.477a2.61,2.61,0,0,0,.767-.077c0,3.146,1.765,7.212,4.987,10.665a22.99,22.99,0,0,0,2.455,2.3l-.537,2.839a8.158,8.158,0,0,1-16.035-2.916l1.151-6.445C189.452,48.924,192.061,46.622,194.132,43.477Z" transform="translate(-43.204 -10.101)" fill="#fcd6b9"/>
      <path id="Path_3673" data-name="Path 3673" d="M173.79,86.4c-.23-1.535-1.381-4.3-4.3-2.916-3.069,1.381-5.141,4.91-5.524,14.654a120.883,120.883,0,0,1-3.222,22.787c-1.228,5.371,4.3,15.729,7.366,9.36s4.834-22.25,5.064-26.623S173.944,87.4,173.79,86.4Z" transform="translate(-37.363 -19.344)" fill="#fcd6b9"/>
      <path id="Path_3674" data-name="Path 3674" d="M186.8,78.235s10.665-3.606,12.123-4.45-3.913,0,.537-8.9c.077-.077-8.21-4.834-8.9-4.987-.767-.153-1.458,1.841-1.458,1.841A27.771,27.771,0,0,1,186.8,78.235Z" transform="translate(-43.468 -13.939)" fill="#fcd6b9"/>
      <g id="Group_4021" data-name="Group 4021" transform="translate(160.039 53.234)">
        <path id="Path_3675" data-name="Path 3675" d="M213.2,70.01s-6.905,26.7-3.836,43.426c2.225,11.816,6.445,3.836,9.974,2.609a58.038,58.038,0,0,1-.23-6.982c0-9.13.307-17.493,1.074-22.557,1.228-7.979,1.228-13.043-.384-14.961C218.262,69.7,216.88,68.629,213.2,70.01Z" transform="translate(-208.575 -69.383)" fill="#fcd6b9"/>
        <path id="Path_3676" data-name="Path 3676" d="M218.435,125.855s.307-2.148,3.222,10.2c2.992,12.353,4.91,33.682,7.979,37.749,3.146,4.066,4.22,1.611,3.683,2.148-1.918,1.918-2.685,3.759-4.757,3.376s-6.522-8.516-11.125-22.634-7.442-23.708-6.675-28.081C211.683,124.167,218.051,124.7,218.435,125.855Z" transform="translate(-209.055 -82.339)" fill="#fcd6b9"/>
        <path id="Path_3677" data-name="Path 3677" d="M228.4,187.407s2.072,4.987,3.222,5.447c1.228.384,4.45,0,6.522-.691s3.529-1.611,4.6-1.765,7.212,1.841,8.977,1.918a8.476,8.476,0,0,0,3.376-.23c1-.384.614-1.074.614-1.074s-.844-.077-3.529-.614c-3.76-.767-8.977-3.376-10.281-4.066-2.378-1.3-2.532-1.458-3.913-.921a37.115,37.115,0,0,1-5.6,1.535A24,24,0,0,1,228.4,187.407Z" transform="translate(-213.189 -96.321)" fill="#fcd6b9"/>
        <path id="Path_3678" data-name="Path 3678" d="M231,193.1s.844,2.378,4.45,3.683a8.2,8.2,0,0,0,4.45.691c1.381-.077,1.841-.153,1.841-.153s.23-1.151-1.458-1.381c-.921-.077-2.685-1.228-1.918-1.841C239.133,193.637,231,193.1,231,193.1Z" transform="translate(-213.795 -98.178)" fill="#c19075"/>
      </g>
      <path id="Path_3679" data-name="Path 3679" d="M174.235,140.35s-2.685-10.281-2.839-16.112.537-16.112.384-16.573c-.153-.384-3.913-2.992-3.683-5.678.307-2.685,3.836-9.9,4.45-12.046.691-2.148.691-9.744.691-9.744a26.554,26.554,0,0,0,13.734-1.228c7.442-2.685,16.8-8.67,16.8-8.67s4.987.537,1.228,23.171c-3.836,22.634-4.987,24.015-5.141,30.69-.307,9.744,5.678,20.792,6.215,29S176.153,143.342,174.235,140.35Z" transform="translate(-39.112 -16.362)" fill="#5eaadb"/>
      <g id="Group_4022" data-name="Group 4022" transform="translate(99.215 0)">
        <circle id="Ellipse_186" data-name="Ellipse 186" cx="16.189" cy="16.189" r="16.189" fill="#ccc"/>
        <circle id="Ellipse_187" data-name="Ellipse 187" cx="3.376" cy="3.376" r="3.376" transform="matrix(0.69, -0.724, 0.724, 0.69, 22.065, 34.733)" fill="#ccc"/>
        <path id="Path_3680" data-name="Path 3680" d="M171.39,51.593a1.995,1.995,0,0,1-3.99,0,2.031,2.031,0,0,1,1.995-1.995A1.934,1.934,0,0,1,171.39,51.593Z" transform="translate(-138.168 -11.543)" fill="#ccc"/>
      </g>
      <g id="Group_4028" data-name="Group 4028" transform="translate(82.98 103.425)">
        <g id="Group_4023" data-name="Group 4023" transform="translate(37.871)">
          <path id="Path_3681" data-name="Path 3681" d="M204.1,163.8h-44.5a1.981,1.981,0,0,1-1.995-1.995V136.795a1.981,1.981,0,0,1,1.995-1.995h44.5a1.981,1.981,0,0,1,1.995,1.995v25.012A2.031,2.031,0,0,1,204.1,163.8Z" transform="translate(-157.523 -134.8)" fill="#b3b3b3"/>
          <rect id="Rectangle_561" data-name="Rectangle 561" width="48.567" height="2.455" transform="translate(0 27.774)" fill="#cab7cc"/>
          <path id="Path_3682" data-name="Path 3682" d="M186.6,149.518a1.918,1.918,0,1,0,1.918-1.918A1.9,1.9,0,0,0,186.6,149.518Z" transform="translate(-164.273 -137.779)" fill="#e7e6e7"/>
        </g>
        <g id="Group_4025" data-name="Group 4025" transform="translate(0.215 39.763)">
          <path id="Path_3683" data-name="Path 3683" d="M155.294,195.5l-11.969.691-2.225-2.455,1.151-4.527,11.279-1.611Z" transform="translate(-116.027 -186.852)" fill="#fcd6b9"/>
          <g id="Group_4024" data-name="Group 4024">
            <path id="Path_3684" data-name="Path 3684" d="M137.623,188.831,125.5,187.373a24.858,24.858,0,0,0-8.9-.537v10.972a27,27,0,0,0,6.291-.077l14.731-1.841-.153-.23A6.149,6.149,0,0,1,137.623,188.831Z" transform="translate(-110.324 -186.625)" fill="#1a3560"/>
            <path id="Path_3685" data-name="Path 3685" d="M108.635,191.734c.844-3.069,3.376-4.373,6.215-4.834v10.972C111.167,197.488,107.484,196.03,108.635,191.734Z" transform="translate(-108.42 -186.689)" fill="#1a3560"/>
          </g>
        </g>
        <g id="Group_4027" data-name="Group 4027" transform="translate(82.295 39.763)">
          <path id="Path_3686" data-name="Path 3686" d="M215.4,195.5l11.892.691,2.225-2.455-1.151-4.527-11.2-1.611Z" transform="translate(-215.4 -186.852)" fill="#fcd6b9"/>
          <g id="Group_4026" data-name="Group 4026" transform="translate(11.892)">
            <path id="Path_3687" data-name="Path 3687" d="M251.923,186.836a24.858,24.858,0,0,0-8.9.537L230.9,188.831a6.132,6.132,0,0,1,.153,6.905l-.153.23,14.731,1.841a29.651,29.651,0,0,0,6.291,0Z" transform="translate(-230.9 -186.625)" fill="#1a3560"/>
            <path id="Path_3688" data-name="Path 3688" d="M264.415,191.734c-.844-3.069-3.376-4.373-6.215-4.834v10.972C261.806,197.488,265.566,196.03,264.415,191.734Z" transform="translate(-237.254 -186.689)" fill="#1a3560"/>
          </g>
        </g>
        <path id="Path_3689" data-name="Path 3689" d="M237.821,160.618c7.826,18.184-91.226,29.846-91.226,29.846L144.6,179.8C144.677,179.8,228.614,139.288,237.821,160.618Z" transform="translate(-116.626 -139.365)" fill="#909493"/>
        <path id="Path_3690" data-name="Path 3690" d="M108.646,160.447c-8.286,18.03,87.85,28.925,87.85,28.925l1.995-10.665S119,137.967,108.646,160.447Z" transform="translate(-108.14 -139.195)" fill="#7d8180"/>
      </g>
    </g>
    <text id="_" data-name="?" transform="translate(464 208)" fill="#fff" font-size="30" font-family="MrEavesXLSanOT-Bold, Mr Eaves XL San OT" font-weight="700"><tspan x="-6.51" y="0">?</tspan></text>
  </g>
</svg>
