<svg xmlns="http://www.w3.org/2000/svg" width="380.204" height="189.067" viewBox="0 0 380.204 189.067">
  <g id="Group_4672" data-name="Group 4672" transform="translate(-309 -195.344)">
    <g id="Group_4030" data-name="Group 4030" transform="translate(308.9 195.455)">
      <path id="Path_3691" data-name="Path 3691" d="M225.912,48.205A10.859,10.859,0,1,1,215.056,37.6,10.729,10.729,0,0,1,225.912,48.205Z" transform="translate(-33.664 -6.22)" fill="#7d8080"/>
      <path id="Path_3692" data-name="Path 3692" d="M239.944,18.786a9.337,9.337,0,0,1-9.353,9.353l-2.338-4.426A9.337,9.337,0,0,1,218.9,14.36V10.853A9.337,9.337,0,0,1,228.253,1.5h2.338a9.337,9.337,0,0,1,9.353,9.353Z" transform="translate(-36.088 -0.266)" fill="#7d8080"/>
      <path id="Path_3693" data-name="Path 3693" d="M218.9,14.36V10.853A9.337,9.337,0,0,1,228.253,1.5h2.338a9.489,9.489,0,0,1,5.678,1.921,20.8,20.8,0,0,1-.5,6.346c-1.587,6.848-6.1,11.858-11.19,13.11A9.245,9.245,0,0,1,218.9,14.36Z" transform="translate(-36.088 -0.266)" fill="#7d8080"/>
      <path id="Path_3694" data-name="Path 3694" d="M227.585,30.592A12.445,12.445,0,1,1,215.142,18.4,12.424,12.424,0,0,1,227.585,30.592Z" transform="translate(-33.416 -3.053)" fill="#7d8080"/>
      <path id="Path_3695" data-name="Path 3695" d="M228.078,47.538A10.692,10.692,0,1,1,217.389,37.1,10.551,10.551,0,0,1,228.078,47.538Z" transform="translate(-34.076 -6.138)" fill="#7d8080"/>
      <path id="Path_3696" data-name="Path 3696" d="M216.31,24.221c4.593-3.09,10.021-3.257,12.025-.334s-.084,7.933-4.76,11.023c-4.593,3.09-10.021,3.257-12.025.334S211.633,27.394,216.31,24.221Z" transform="translate(-34.751 -3.613)" fill="#7d8080"/>
      <path id="Path_3697" data-name="Path 3697" d="M236.891,5.7a15.167,15.167,0,0,1-.251,2.672c-.919,6.012-4.593,10.522-8.6,11.106a26.193,26.193,0,0,1-1.336,7.265c-.752,2.338-3.507,4.843-3.507,4.843-.668,4.175,13.612,10.355,13.277,9.687s-3.841-5.595-5.01-10.1a9.338,9.338,0,0,1,1.42-7.6,7.809,7.809,0,0,1,5.428-2.589,1.059,1.059,0,0,0,.752-.334,7.118,7.118,0,0,0,.251-1.921V10.961A6.025,6.025,0,0,0,236.891,5.7Z" transform="translate(-36.793 -0.958)" fill="#fcd6b9"/>
      <g id="Group_4047" data-name="Group 4047" transform="translate(220.389 115.325)">
        <path id="Path_3698" data-name="Path 3698" d="M402.46,195.7c1.42-1.086,5.595-1.169,1.5-3.674a39.14,39.14,0,0,0-13.361-4.927c10.438-.585,23.048-2.338,13.862-7.1-2.839-1.5-7.933-1.921-13.779-1.837,7.265-2.255,11.774-4.76,8.685-6.931-2.923-2-10.772-.919-19.373,1.169,5.428-2.505,9.019-5.261,7.933-7.683-.919-2-4.593-1.67-9.186-.167,1.086-2.589.585-4.593-2-5.344-2.422-.668-5.428,1.587-8.184,4.676-.167-6.6-.084-14.113-6.681-14.781-3.424-.334-7.933,14.113-28.476,44.509Z" transform="translate(-275.363 -139.934)" fill="#b1d0ed"/>
        <g id="Group_4030-2" data-name="Group 4030" transform="translate(0 12.411)">
          <path id="Path_3699" data-name="Path 3699" d="M312.584,203.1c-.752-6.68-1.837-11.607-6.68-16.367-2.255-2.255-5.261-3.841-7.1-6.43-2.171-3.173-2.338-7.6-5.344-10.1-3.257-2.672-8.434-1.921-11.774-4.509-2.338-1.837-3.257-4.843-4.927-7.265a13.359,13.359,0,0,0-12.86-5.261c4.843,1.169,8.267,6.263,7.349,11.023-.585,3.006-2.756,5.762-2.505,8.852.5,6.1,9.77,8.685,10.438,14.781.167,1.67-.334,3.34-.418,5.01-.251,5.177,4.426,10.1,9.854,10.271Z" transform="translate(-263.9 -152.987)" fill="#1a3560"/>
        </g>
        <g id="Group_4031" data-name="Group 4031" transform="translate(33.289)">
          <path id="Path_3700" data-name="Path 3700" d="M329.281,205.494c-.418-1.42-3.424-5.177-10.939-8.935-5.929-3.006-3.841-5.845-1.336-7.516,2.589-1.67,5.678-2.088,4.008-5.511-5.595-11.357-2.672-23.966,3.925-18.622,3.591,2.839,6.43-2.171,5.094-5.094-2.839-6.179-2-11.774,2.589-10.021,4.509,1.67,7.683.752,7.349-2.255-.25-3.006-3.591-7.85,1.921-9.353,2.171-.585,6.513,3.006,6.931,7.766.251,2.756-1.169,11.357,4.509,7.432,5.762-4.008,6.43,1.754,4.175,5.01-.835,1.169-7.85,12.943-3.591,12.025,5.01-1.086,6.1,3.424,1.253,8.1-2.171,2.171-8.267,5.344-6.43,7.1s3.841,4.843.5,8.1C343.394,199.064,328.446,202.571,329.281,205.494Z" transform="translate(-305.535 -138.125)" fill="#1a3560"/>
          <path id="Path_3701" data-name="Path 3701" d="M347.413,142a72.872,72.872,0,0,1-4.509,39.582c-7.85,18.872-7.265,9.269-9.6,20.877" transform="translate(-308.635 -138.764)" fill="none" stroke="#fff" stroke-miterlimit="10" stroke-width="0.71"/>
          <path id="Path_3702" data-name="Path 3702" d="M338.8,158.8s7.766,6.68,8.685,14.113" transform="translate(-309.543 -141.535)" fill="none" stroke="#fff" stroke-miterlimit="10" stroke-width="0.71"/>
          <path id="Path_3703" data-name="Path 3703" d="M360.975,159.9s-8.434,5.845-12.275,14.948" transform="translate(-311.175 -141.717)" fill="none" stroke="#fff" stroke-miterlimit="10" stroke-width="0.71"/>
          <path id="Path_3704" data-name="Path 3704" d="M361.035,180s-14.28,6.68-17.035,9.52" transform="translate(-310.4 -145.032)" fill="none" stroke="#fff" stroke-miterlimit="10" stroke-width="0.71"/>
          <path id="Path_3705" data-name="Path 3705" d="M327.51,181.73c2.422,10.689-.083,18.371-5.678,25.97-8.184-3.758-14.7-9.019-17.119-19.707s-.083-21.378,5.595-28.893C318.408,162.858,325.088,171.041,327.51,181.73Z" transform="translate(-303.764 -141.585)" fill="#b1d0ed"/>
          <rect id="Rectangle_562" data-name="Rectangle 562" width="0.835" height="46.763" transform="translate(7.166 21.6) rotate(-12.767)" fill="#1a3560"/>
          <rect id="Rectangle_563" data-name="Rectangle 563" width="0.835" height="7.098" transform="matrix(0.525, -0.851, 0.851, 0.525, 3.407, 27.515)" fill="#1a3560"/>
          <rect id="Rectangle_564" data-name="Rectangle 564" width="0.835" height="8.768" transform="matrix(0.525, -0.851, 0.851, 0.525, 3.728, 34.468)" fill="#1a3560"/>
          <rect id="Rectangle_565" data-name="Rectangle 565" width="0.835" height="14.614" transform="matrix(0.525, -0.851, 0.851, 0.525, 0.463, 39.145)" fill="#1a3560"/>
          <rect id="Rectangle_566" data-name="Rectangle 566" width="0.835" height="14.196" transform="matrix(0.525, -0.851, 0.851, 0.525, 2.625, 47.075)" fill="#1a3560"/>
          <rect id="Rectangle_567" data-name="Rectangle 567" width="7.432" height="0.835" transform="matrix(0.505, -0.863, 0.863, 0.505, 9.1, 29.744)" fill="#1a3560"/>
          <rect id="Rectangle_568" data-name="Rectangle 568" width="11.524" height="0.835" transform="matrix(0.505, -0.863, 0.863, 0.505, 10.889, 37.502)" fill="#1a3560"/>
          <rect id="Rectangle_569" data-name="Rectangle 569" width="14.447" height="0.835" transform="matrix(0.505, -0.863, 0.863, 0.505, 12.677, 45.243)" fill="#1a3560"/>
          <path id="Path_3706" data-name="Path 3706" d="M349.62,189.244c-3.507,10.522-9.436,15.282-18.037,18.622-4.76-7.85-7.6-15.616-4.092-26.137s11.023-18.288,19.624-21.628C351.875,167.95,353.128,178.722,349.62,189.244Z" transform="translate(-307.419 -141.75)" fill="#b7b8ba"/>
          <rect id="Rectangle_570" data-name="Rectangle 570" width="47.348" height="0.835" transform="translate(22.961 67.096) rotate(-71.368)" fill="#1a3560"/>
          <rect id="Rectangle_571" data-name="Rectangle 571" width="0.835" height="7.265" transform="translate(31.882 25.222) rotate(-24.828)" fill="#1a3560"/>
          <rect id="Rectangle_572" data-name="Rectangle 572" width="0.835" height="8.935" transform="translate(28.595 31.289) rotate(-24.828)" fill="#1a3560"/>
          <rect id="Rectangle_573" data-name="Rectangle 573" width="0.835" height="14.948" transform="translate(23.496 33.514) rotate(-24.828)" fill="#1a3560"/>
          <rect id="Rectangle_574" data-name="Rectangle 574" width="0.835" height="14.948" transform="translate(22.476 41.782) rotate(-24.828)" fill="#1a3560"/>
          <rect id="Rectangle_575" data-name="Rectangle 575" width="7.265" height="0.835" transform="translate(35.505 30.357) rotate(-27.69)" fill="#1a3560"/>
          <rect id="Rectangle_576" data-name="Rectangle 576" width="11.273" height="0.835" transform="matrix(0.885, -0.465, 0.465, 0.885, 32.951, 37.961)" fill="#1a3560"/>
          <rect id="Rectangle_577" data-name="Rectangle 577" width="14.113" height="0.835" transform="matrix(0.885, -0.465, 0.465, 0.885, 30.374, 45.638)" fill="#1a3560"/>
          <rect id="Rectangle_578" data-name="Rectangle 578" width="14.53" height="0.835" transform="translate(27.801 53.265) rotate(-27.69)" fill="#1a3560"/>
        </g>
        <g id="Group_4046" data-name="Group 4046" transform="translate(12.359 27.724)">
          <g id="Group_4033" data-name="Group 4033">
            <g id="Group_4032" data-name="Group 4032">
              <path id="Path_3707" data-name="Path 3707" d="M278.7,171.388a84.536,84.536,0,0,1,12.776,15.031c3.507,5.261,6.012,10.856,8.852,16.451.25.5,1.086.167.919-.418-3.758-12.025-13.027-22.881-22.547-31.064Z" transform="translate(-278.7 -171.325)" fill="#c6c7c7"/>
            </g>
          </g>
          <g id="Group_4035" data-name="Group 4035" transform="translate(0.292 5.88)">
            <g id="Group_4034" data-name="Group 4034">
              <path id="Path_3708" data-name="Path 3708" d="M279.175,178.729a8.883,8.883,0,0,1,3.925.334,28.028,28.028,0,0,1,3.507,1.837.185.185,0,0,0,.25-.251c-1.5-2.171-5.261-2.505-7.683-2.171a.125.125,0,1,0,0,.251Z" transform="translate(-279.05 -178.367)" fill="#c6c7c7"/>
            </g>
          </g>
          <g id="Group_4037" data-name="Group 4037" transform="translate(3.319 12.149)">
            <g id="Group_4036" data-name="Group 4036">
              <path id="Path_3709" data-name="Path 3709" d="M282.7,186.647a12.656,12.656,0,0,1,5.595-.084,22.12,22.12,0,0,1,4.509,2.088c.251.167.5-.167.334-.418-2.505-2.589-7.1-2.839-10.355-1.754-.167.083-.084.167-.084.167Z" transform="translate(-282.675 -185.874)" fill="#c6c7c7"/>
            </g>
          </g>
          <g id="Group_4039" data-name="Group 4039" transform="translate(6.542 20.788)">
            <g id="Group_4038" data-name="Group 4038">
              <path id="Path_3710" data-name="Path 3710" d="M286.673,197.205c5.094-.585,8.518.418,12.359,3.674.251.167.668-.084.418-.334-2.505-3.674-8.685-5.428-12.86-3.591-.084.084-.084.251.083.251Z" transform="translate(-286.534 -196.219)" fill="#c6c7c7"/>
            </g>
          </g>
          <g id="Group_4041" data-name="Group 4041" transform="translate(8.692 3.164)">
            <g id="Group_4040" data-name="Group 4040">
              <path id="Path_3711" data-name="Path 3711" d="M290.354,175.186c-2.088,2.171-1.336,6.513.668,8.434.083.084.167,0,.167-.084a7.826,7.826,0,0,1-1.587-4.259c-.083-1.5.585-2.589,1-4.008.083-.083-.167-.251-.251-.083Z" transform="translate(-289.108 -175.114)" fill="#c6c7c7"/>
            </g>
          </g>
          <g id="Group_4043" data-name="Group 4043" transform="translate(13.092 7.988)">
            <g id="Group_4042" data-name="Group 4042">
              <path id="Path_3712" data-name="Path 3712" d="M295.064,180.982a10.568,10.568,0,0,0,.752,9.1c.083.167.334.084.25-.084a16.349,16.349,0,0,1-.752-8.935c.083-.167-.167-.251-.251-.083Z" transform="translate(-294.378 -180.891)" fill="#c6c7c7"/>
            </g>
          </g>
          <g id="Group_4045" data-name="Group 4045" transform="translate(18.44 13.383)">
            <g id="Group_4044" data-name="Group 4044">
              <path id="Path_3713" data-name="Path 3713" d="M302.05,187.476a14.665,14.665,0,0,0,.167,12.275c.167.334.752.167.585-.167a17.27,17.27,0,0,1-.418-11.941c.083-.251-.251-.418-.334-.167Z" transform="translate(-300.782 -187.352)" fill="#c6c7c7"/>
            </g>
          </g>
        </g>
      </g>
      <path id="Path_3714" data-name="Path 3714" d="M321.181,192.389c-57.953,16.117-52.108-10.689-98.287-10.689-29.728,0-45.594,29.311-152.566,4.927C41.185,179.946,8.618,183.788.1,218.944H380.3C380.3,218.86,368.112,179.278,321.181,192.389Z" transform="translate(0 -29.988)" fill="#e7e6e7" fill-rule="evenodd"/>
      <path id="Path_3715" data-name="Path 3715" d="M179.944,28.092c-2.505,5.261-4.092,7.766-4.426,8.017-2.338,1.67-9.353-3.674-8.434-4.927s4.593-7.933,4.76-9.019C171.927,21.078,181.447,25,179.944,28.092Z" transform="translate(-27.528 -3.643)" fill="#e8b79e"/>
      <path id="Path_3716" data-name="Path 3716" d="M190.117,9.5,185.19,26.782s-.668,3.674-2.171,3.925-5.177-.668-6.6-2.171c-1.336-1.5-3.591-3.507-3.424-6.931.251-3.424,1.921-11.273,1.921-11.273s3.09-6.263,7.683-3.841A29.683,29.683,0,0,0,190.117,9.5Z" transform="translate(-28.516 -0.997)" fill="#e8b79e"/>
      <g id="Group_4048" data-name="Group 4048" transform="translate(190.578 78.979)">
        <path id="Path_3717" data-name="Path 3717" d="M237.8,94.6l12.275,38L252,167l-7.1,1.67L241.394,152.3a8.226,8.226,0,0,1-.167-1.42l-.167-11.941L228.2,116.479Z" transform="translate(-228.2 -94.6)" fill="#9c9f9f"/>
      </g>
      <g id="Group_4049" data-name="Group 4049" transform="translate(207.279 151.378)">
        <path id="Path_3718" data-name="Path 3718" d="M248.2,182.97l1.921,8.518h7.933L255.215,181.3Z" transform="translate(-248.2 -181.3)" fill="#fcd6b9"/>
      </g>
      <g id="Group_4050" data-name="Group 4050" transform="translate(208.364 158.727)">
        <path id="Path_3719" data-name="Path 3719" d="M250.168,192.522l-.668,1.42v7.349l20.376-.919,6.179-5.678-.418-.585a3.542,3.542,0,0,0-4.509-1.169l-1.67.835-5.428-.919-5.511-2.756H257.35C257.517,190.184,255.93,192.939,250.168,192.522Z" transform="translate(-249.5 -190.1)" fill="#1a3560"/>
      </g>
      <g id="Group_4051" data-name="Group 4051" transform="translate(208.448 162.067)">
        <path id="Path_3720" data-name="Path 3720" d="M275.153,194.1l-5.177,4.76-20.376.919v2.255l20.376-.919,6.179-5.678-.418-.585A5.889,5.889,0,0,0,275.153,194.1Z" transform="translate(-249.6 -194.1)" fill="#9c9f9f"/>
      </g>
      <g id="Group_4052" data-name="Group 4052" transform="translate(174.795 33.885)">
        <path id="Path_3721" data-name="Path 3721" d="M216.649,40.6,209.3,46.612l3.674,6.012,7.766-5.511Z" transform="translate(-209.3 -40.6)" fill="#289cd7"/>
      </g>
      <g id="Group_4053" data-name="Group 4053" transform="translate(161.192 39.898)">
        <path id="Path_3722" data-name="Path 3722" d="M206.613,47.8,194.087,58.489a3.114,3.114,0,0,0,.167,4.843l19.373,14.614,5.094,1.169,2.672-4.426V72.351l-5.428.167A2,2,0,0,1,214.8,72.1L202.438,60.242l7.85-6.43Z" transform="translate(-193.01 -47.8)" fill="#fcd6b9"/>
      </g>
      <g id="Group_4054" data-name="Group 4054" transform="translate(180.997 29.877)">
        <path id="Path_3723" data-name="Path 3723" d="M221.464,35.8l-3.507,3.925-1.169,7.933a5.883,5.883,0,0,0,.585,3.591c1.754,3.424,5.261,11.106,5.261,13.862,0,2,.5,3.925,0,7.933L238,76.217l3.34-19.791a33.8,33.8,0,0,0,.418-5.01v-.167a6.65,6.65,0,0,0-2-4.676L228.98,36.385Z" transform="translate(-216.726 -35.8)" fill="#289cd7"/>
      </g>
      <g id="Group_4055" data-name="Group 4055" transform="translate(145.067 67.121)">
        <path id="Path_3724" data-name="Path 3724" d="M215.537,80.4l-4.843,7.766a16.792,16.792,0,0,0-2.505,8.935v2.338l.919,3.507-3.841,29.979H194.159a20.788,20.788,0,0,0-5.094.668L173.7,137.852v6.931l31.315-1.921a13.221,13.221,0,0,0,11.858-9.436L228.814,93.26l2.088-9.687Z" transform="translate(-173.7 -80.4)" fill="#aaa"/>
      </g>
      <path id="Path_3725" data-name="Path 3725" d="M161.3,150.135v7.1l10.355-1.086V149.3Z" transform="translate(-26.588 -24.644)" fill="#fcd6b9"/>
      <g id="Group_4056" data-name="Group 4056" transform="translate(125.025 124.656)">
        <path id="Path_3726" data-name="Path 3726" d="M162.059,149.968l-1.921-.668H157.8a1.616,1.616,0,0,0-1.42.835l-6.68,12.442v9.436h2.088a2.407,2.407,0,0,0,2.255-1.67l1.169-3.591,8.351-6.764a2.334,2.334,0,0,0,.919-1.837v-1.336C164.564,156.732,159.971,156.315,162.059,149.968Z" transform="translate(-149.7 -149.3)" fill="#1a3560"/>
      </g>
      <g id="Group_4057" data-name="Group 4057" transform="translate(125.109 124.656)">
        <path id="Path_3727" data-name="Path 3727" d="M152.055,162.577l6.68-12.442a1.616,1.616,0,0,1,1.42-.835H157.9a1.616,1.616,0,0,0-1.42.835l-6.68,12.442v9.436h2.255Z" transform="translate(-149.8 -149.3)" fill="#9c9f9f"/>
      </g>
      <g id="Group_4058" data-name="Group 4058" transform="translate(208.448 164.405)">
        <rect id="Rectangle_579" data-name="Rectangle 579" width="9.937" height="0.501" fill="#9c9f9f"/>
      </g>
      <g id="Group_4061" data-name="Group 4061" transform="translate(133.459 124.74)">
        <g id="Group_4059" data-name="Group 4059" transform="translate(0 0.334)">
          <path id="Path_3728" data-name="Path 3728" d="M163.558,149.967l-.5-.167-3.257,8.768.5.167Z" transform="translate(-159.8 -149.8)" fill="#9c9f9f"/>
        </g>
        <g id="Group_4060" data-name="Group 4060" transform="translate(0.501)">
          <path id="Path_3729" data-name="Path 3729" d="M162.154,149.4l-1.754,4.843.334.167,1.837-4.927Z" transform="translate(-160.4 -149.4)" fill="#9c9f9f"/>
        </g>
      </g>
      <g id="Group_4062" data-name="Group 4062" transform="translate(208.448 165.491)">
        <rect id="Rectangle_580" data-name="Rectangle 580" width="4.426" height="0.501" fill="#9c9f9f"/>
      </g>
      <g id="Group_4064" data-name="Group 4064" transform="translate(179.889 78.561)">
        <g id="Group_4063" data-name="Group 4063" opacity="0.3">
          <path id="Path_3730" data-name="Path 3730" d="M215.9,94.434V94.1a8.809,8.809,0,0,0-.5,2C215.567,95.436,215.818,94.852,215.9,94.434Z" transform="translate(-215.4 -94.1)"/>
        </g>
      </g>
      <g id="Group_4065" data-name="Group 4065" transform="translate(189.242 30.545)">
        <path id="Path_3731" data-name="Path 3731" d="M230.692,36.6l4.843,2.088a3.3,3.3,0,0,1,2,3.006v8.1h-7.766V42.278L226.6,36.6Z" transform="translate(-226.6 -36.6)" fill="#289cd7"/>
      </g>
      <g id="Group_4066" data-name="Group 4066" transform="translate(192.415 36.056)">
        <path id="Path_3732" data-name="Path 3732" d="M230.4,50.883l4.509,18.037a2.079,2.079,0,0,0,3.424,1l15.866-15.2,4.676-3.758a1.817,1.817,0,0,0,.418-1.921l-.251-.752-4.426-2.839a1.291,1.291,0,0,0-1.67.251l-1.086,1.253-.418-.251.084-1.587a1.8,1.8,0,0,0-1.754-1.921h0l-.418,6.1.585,2.505-10.355,8.852-1.5-9.854H230.4Z" transform="translate(-230.4 -43.2)" fill="#fcd6b9"/>
      </g>
      <g id="Group_4102" data-name="Group 4102" transform="translate(80.349 -0.111)">
        <g id="Group_4067" data-name="Group 4067" transform="translate(62.463 110.572)">
          <path id="Path_3733" data-name="Path 3733" d="M171,134.638l8.434,10.355s-3.09,14.864,0,19.874c0,0,4.843,13.277,4.426,19.373h10.021l-1.169-4.927s-4.509-6.6-3.09-30.229c0,0,3.34-6.764.167-10.355l-2.505-6.43Z" transform="translate(-171 -132.3)" fill="#e8b79e"/>
        </g>
        <g id="Group_4068" data-name="Group 4068" transform="translate(75.323 157.585)">
          <path id="Path_3734" data-name="Path 3734" d="M186.4,192.024v6.513a2.512,2.512,0,0,0,2.505,2.505h23.131v-2.088l-12.86-6.012-4.008-4.342C195.252,188.6,195.753,192.942,186.4,192.024Z" transform="translate(-186.4 -188.6)" fill="#9c9f9f"/>
        </g>
        <g id="Group_4069" data-name="Group 4069" transform="translate(75.323 165.352)">
          <path id="Path_3735" data-name="Path 3735" d="M188.905,200.405A2.512,2.512,0,0,1,186.4,197.9v2.255a2.512,2.512,0,0,0,2.505,2.505h23.131v-2.171l-.334-.167h-22.8Z" transform="translate(-186.4 -197.9)" fill="#1a3560"/>
        </g>
        <g id="Group_4070" data-name="Group 4070" transform="translate(54.196 87.941)">
          <path id="Path_3736" data-name="Path 3736" d="M174.294,105.2,186.9,127.663l-18.872,2.756-6.931-8.768,1.169-14.447Z" transform="translate(-161.1 -105.2)" fill="#1a3560"/>
        </g>
        <g id="Group_4075" data-name="Group 4075" transform="translate(86.262 161.26)">
          <g id="Group_4071" data-name="Group 4071" transform="translate(1.42 1.169)">
            <path id="Path_3737" data-name="Path 3737" d="M201.2,196.237l1,.5,1.5-1.837-1-.5Z" transform="translate(-201.2 -194.4)" fill="#1a3560"/>
          </g>
          <g id="Group_4072" data-name="Group 4072" transform="translate(5.428 3.173)">
            <path id="Path_3738" data-name="Path 3738" d="M207.754,196.8,206,198.721l1,.585,1.837-2Z" transform="translate(-206 -196.8)" fill="#1a3560"/>
          </g>
          <g id="Group_4073" data-name="Group 4073" transform="translate(3.257 2.088)">
            <path id="Path_3739" data-name="Path 3739" d="M206.156,196l-1-.5-1.754,1.837,1.086.5Z" transform="translate(-203.4 -195.5)" fill="#1a3560"/>
          </g>
          <g id="Group_4074" data-name="Group 4074">
            <path id="Path_3740" data-name="Path 3740" d="M200.836,193l-1.336,1.587.835.668,1.253-1.5-.167-.083Z" transform="translate(-199.5 -193)" fill="#1a3560"/>
          </g>
        </g>
        <g id="Group_4076" data-name="Group 4076" transform="translate(5.428 114.162)">
          <path id="Path_3741" data-name="Path 3741" d="M132.679,136.6l-1.754,4.593s-12.108,2.672-14.363,8.017L102.7,161.151l1,7.85,4.927-2.088s1.253-6.6,27.056-15.282l3.006-.919a3.7,3.7,0,0,0,2.422-2.171l2.923-7.1Z" transform="translate(-102.7 -136.6)" fill="#e8b79e"/>
        </g>
        <g id="Group_4077" data-name="Group 4077" transform="translate(0 136.542)">
          <path id="Path_3742" data-name="Path 3742" d="M104.133,163.4H99.206a2.195,2.195,0,0,0-2.171,2.088l-.835,17.62,3.507,4.593a1.6,1.6,0,0,0,1.169.585H102.8a1.6,1.6,0,0,0,1.5-1.253l1.5-12.025,1.67-3.674C107.557,171.25,100.375,170.5,104.133,163.4Z" transform="translate(-96.2 -163.4)" fill="#9c9f9f"/>
        </g>
        <g id="Group_4078" data-name="Group 4078" transform="translate(0 136.458)">
          <path id="Path_3743" data-name="Path 3743" d="M101.377,187.6l-3.507-4.593.835-17.62a2.195,2.195,0,0,1,2.171-2.088h-1.67a2.195,2.195,0,0,0-2.171,2.088l-.835,17.62,3.507,4.593a1.6,1.6,0,0,0,1.169.585h1.67A1.354,1.354,0,0,1,101.377,187.6Z" transform="translate(-96.2 -163.3)" fill="#1a3560"/>
        </g>
        <g id="Group_4079" data-name="Group 4079" transform="translate(35.373 43.015)">
          <path id="Path_3744" data-name="Path 3744" d="M145.942,51.4l-6.513,7.1a3.15,3.15,0,0,0-.334,3.925l5.261,8.1,14.2-14.447Z" transform="translate(-138.56 -51.4)" fill="#e8b79e"/>
        </g>
        <g id="Group_4080" data-name="Group 4080" transform="translate(57.351)">
          <path id="Path_3745" data-name="Path 3745" d="M190.449,3.405c-.084-.334-.084-.585-.167-.835a1.334,1.334,0,0,0-1.169-1,1.247,1.247,0,0,0-.585.251c-3.006,1.754-6.6,0-9.52-1.253A6.565,6.565,0,0,0,176.838-.1c-1-.084-1.42.418-2.255.668a6.5,6.5,0,0,1-2.839-.334A4.8,4.8,0,0,0,168.9.566a6.849,6.849,0,0,0-3.758,5.01,18.713,18.713,0,0,0,.334,7.766,19.358,19.358,0,0,0,.5,3.173,14.859,14.859,0,0,1,1,2.422c.251,1,1,3.507,1.169,4.509a.76.76,0,0,0,.334.668c.334.167.668-.084.919-.251.418-.334,1.253-1.921,1.67-2.171,1.587-.919,2.338-1.42,3.925-2.338,1.67-1,1.837-2.589,2.505-4.259.835-2.171,2.923-3.758,4.676-5.094a2.993,2.993,0,0,1,2.338-.668c1.086.167,2.505,1.086,3.507.5a2.713,2.713,0,0,0,.835-1.086c.251-.418-.585,2.338-.334,1.921.167-.418,2.088-.334,2.171-.752C191.2,9.167,190.533,4.408,190.449,3.405Z" transform="translate(-164.878 0.111)" fill="#ad5c4a"/>
        </g>
        <g id="Group_4081" data-name="Group 4081" transform="translate(33.737 85.77)">
          <path id="Path_3746" data-name="Path 3746" d="M138.27,103.352s0,9.1,1.5,11.691h0l-3.173,15.2,13.946,5.929,14.28-17.62a7.6,7.6,0,0,0,1.587-3.173L169,105.69l-28.392-3.09Z" transform="translate(-136.6 -102.6)" fill="#2a436b"/>
        </g>
        <g id="Group_4082" data-name="Group 4082" transform="translate(64.232 6.571)">
          <path id="Path_3747" data-name="Path 3747" d="M188.969,9.213s-13.194,17.453-13.194,14.363V20.152s-2.171-.334-2.422-1.754c0,0-.668-3.424.251-3.841,0,0,2.255-.5,2.589.919l.251,1.42.752-3.925C177.362,12.887,180.869,4.453,188.969,9.213Z" transform="translate(-173.119 -7.757)" fill="#e8b79e"/>
        </g>
        <g id="Group_4083" data-name="Group 4083" transform="translate(62.129 4.603)">
          <path id="Path_3748" data-name="Path 3748" d="M189.723,5.734c.084-1.336-.668,1.837-1.754,1a4.864,4.864,0,0,0-2.422-.752c-2.255-.251-4.593-.919-6.764-.167-.752.251-1.921.585-2.672.835-1.169.418-2,1.169-3.173,1.67A3.447,3.447,0,0,0,170.6,11a.9.9,0,0,0,.167.668c.167.251.585.334.919.418,1.5.334,4.927-.418,4.426,4.008-.167,1.253.668,1.837,2.255,2.923-.334-.251.5-3.674.585-4.092.334-1,.835-1.921,1.253-2.923.668-1.67,2.756-2.672,4.008-1.67a10.848,10.848,0,0,0,4.342,2c.668.167,2,.585,2.672.251,1.921-.919-1.5-2.338-1.5-3.257C189.723,9.409,189.723,5.734,189.723,5.734Z" transform="translate(-170.6 -5.401)" fill="#ad5c4a"/>
        </g>
        <g id="Group_4084" data-name="Group 4084" transform="translate(34.572 25.729)">
          <path id="Path_3749" data-name="Path 3749" d="M162.234,30.7c-.084.167-5.845,2.255-5.845,2.255l-8.184,10.271a4.719,4.719,0,0,0-1.086,2.756l-2.505,27.724a17.461,17.461,0,0,1-1.67,6.1L137.6,91.158l19.791,5.261a12.3,12.3,0,0,0,9.937-1.587l4.259-2L178.351,56.5A5.122,5.122,0,0,0,178.184,54L172.84,39.218Z" transform="translate(-137.6 -30.7)" fill="#bdddf4"/>
        </g>
        <g id="Group_4089" data-name="Group 4089" transform="translate(4.843 145.978)">
          <g id="Group_4085" data-name="Group 4085" transform="translate(0 4.509)">
            <path id="Path_3750" data-name="Path 3750" d="M103,180.1l-1,.585a4.383,4.383,0,0,0,4.008,2.338h.167l.167-1.169A3.219,3.219,0,0,1,103,180.1Z" transform="translate(-102 -180.1)" fill="#1a3560"/>
          </g>
          <g id="Group_4086" data-name="Group 4086" transform="translate(0.418 7.015)">
            <path id="Path_3751" data-name="Path 3751" d="M103.5,183.1l-1,.585a3.585,3.585,0,0,0,3.257,1.921h.167l.167-1.169A2.534,2.534,0,0,1,103.5,183.1Z" transform="translate(-102.5 -183.1)" fill="#1a3560"/>
          </g>
          <g id="Group_4087" data-name="Group 4087" transform="translate(0 2.255)">
            <path id="Path_3752" data-name="Path 3752" d="M106.676,179.154A3.511,3.511,0,0,1,103,177.4l-1,.585a4.382,4.382,0,0,0,4.008,2.338h.5l.167-1.169Z" transform="translate(-102 -177.4)" fill="#1a3560"/>
          </g>
          <g id="Group_4088" data-name="Group 4088" transform="translate(0.585)">
            <path id="Path_3753" data-name="Path 3753" d="M103.7,174.7l-1,.585a4.382,4.382,0,0,0,4.008,2.338h.251l.167-1.169A3.28,3.28,0,0,1,103.7,174.7Z" transform="translate(-102.7 -174.7)" fill="#1a3560"/>
          </g>
        </g>
        <g id="Group_4090" data-name="Group 4090" transform="translate(41.169 25.729)">
          <path id="Path_3754" data-name="Path 3754" d="M163.537,30.7,145.5,49.739l12.609,6.513,10.522-7.766.167-7.015Z" transform="translate(-145.5 -30.7)" fill="#bdddf4"/>
        </g>
        <g id="Group_4091" data-name="Group 4091" transform="translate(36.866 45.52)">
          <path id="Path_3755" data-name="Path 3755" d="M146.07,54.4l-5.428,13.946a4.216,4.216,0,0,0,3.34,5.678l26.889,3.758,4.008,1.42,9.77,1.587a1.039,1.039,0,0,0,1.169-.919h0a.907.907,0,0,0-.585-1l-.919-.5h1a1.035,1.035,0,0,0,1.086-1h0a1.119,1.119,0,0,0-.668-1.086l-.752-.334.919-.084a.972.972,0,0,0,.919-.835h0a.952.952,0,0,0-.5-1l-1.5-.752h1.336a1.142,1.142,0,0,0,1.169-1.169h0a1.252,1.252,0,0,0-.919-1.169l-2.756-.668h0a2.276,2.276,0,0,0-2.088-1.42l-4.593.251-3.591,1.837-20.793-6.012,3.34-5.428Z" transform="translate(-140.348 -54.4)" fill="#e8b79e"/>
        </g>
        <g id="Group_4092" data-name="Group 4092" transform="translate(64.383 61.219)">
          <path id="Path_3756" data-name="Path 3756" d="M175.471,80.8l-2.171-.334,2.088-7.265,2.088.585Z" transform="translate(-173.3 -73.2)" fill="#191c3c"/>
        </g>
        <g id="Group_4096" data-name="Group 4096" transform="translate(63.882 62.472)">
          <g id="Group_4093" data-name="Group 4093">
            <circle id="Ellipse_188" data-name="Ellipse 188" cx="2.672" cy="2.672" r="2.672" fill="#191c3c"/>
          </g>
          <g id="Group_4094" data-name="Group 4094" transform="translate(0.585 0.585)">
            <circle id="Ellipse_189" data-name="Ellipse 189" cx="2.088" cy="2.088" r="2.088" fill="#717386"/>
          </g>
          <g id="Group_4095" data-name="Group 4095" transform="translate(0.668 0.752)">
            <path id="Path_3757" data-name="Path 3757" d="M177.341,77.521a1.921,1.921,0,1,1-1.921-1.921A2,2,0,0,1,177.341,77.521Z" transform="translate(-173.5 -75.6)" fill="#4d5068"/>
          </g>
        </g>
        <g id="Group_4097" data-name="Group 4097" transform="translate(41.419 46.105)">
          <path id="Path_3758" data-name="Path 3758" d="M155.32,62.2l-9.52-4.676,1-2.422,9.77,4.843Z" transform="translate(-145.8 -55.1)" fill="#191c3c"/>
        </g>
        <g id="Group_4101" data-name="Group 4101" transform="translate(41.267 42.947)">
          <g id="Group_4098" data-name="Group 4098">
            <path id="Path_3759" data-name="Path 3759" d="M150.446,64.413l-3.925-2.171a1.766,1.766,0,0,1-.668-2.422l4.092-7.6a1.766,1.766,0,0,1,2.422-.668l3.925,2.171a1.766,1.766,0,0,1,.668,2.422l-4.092,7.6A1.786,1.786,0,0,1,150.446,64.413Z" transform="translate(-145.618 -51.318)" fill="#191c3c"/>
          </g>
          <g id="Group_4099" data-name="Group 4099" transform="translate(0.835 1.002)">
            <path id="Path_3760" data-name="Path 3760" d="M150.945,63.776l-3.758-2a1.074,1.074,0,0,1-.418-1.5l3.925-7.182a1.074,1.074,0,0,1,1.5-.418l3.758,2a1.074,1.074,0,0,1,.418,1.5l-3.925,7.182A1.2,1.2,0,0,1,150.945,63.776Z" transform="translate(-146.618 -52.518)" fill="#dfe2ec"/>
          </g>
          <g id="Group_4100" data-name="Group 4100" transform="translate(1.321 1.572)">
            <path id="Path_3761" data-name="Path 3761" d="M151.292,63.388l-3.758-2a.6.6,0,0,1-.251-.835l3.841-7.015a.6.6,0,0,1,.835-.251l3.758,2a.6.6,0,0,1,.251.835l-3.841,7.015A.561.561,0,0,1,151.292,63.388Z" transform="translate(-147.2 -53.2)" fill="#aaa"/>
          </g>
        </g>
      </g>
    </g>
  </g>
</svg>
