<svg xmlns="http://www.w3.org/2000/svg" width="310.675" height="222.243" viewBox="0 0 310.675 222.243">
  <g id="Group_4118" data-name="Group 4118" transform="translate(-0.021 0)">
    <path id="Path_3870" data-name="Path 3870" d="M295.548,196.219c-6.886-1-14.315-.181-21.02-.272-16.943-.091-33.795-.453-50.738-1-29.446-.906-58.982-2.174-88.338-4.258-93.411-6.8-169.7,4.8-119.505,17.758C29.991,212.074-10.417,234,88.521,238.8c86.8,4.168,114.16-3.805,157.015-7.882,13.137-1.268,26.275-2.718,38.6-6.8,8.064-2.718,25.731-7.429,26.547-16.309C311.132,201.021,302.253,197.215,295.548,196.219Z" transform="translate(0 -17.731)" fill="#e7e6e7"/>
    <g id="Group_4124" data-name="Group 4124" transform="translate(171.104 98.844)">
      <g id="Group_4119" data-name="Group 4119" transform="translate(25.588 31.737)">
        <path id="Path_3871" data-name="Path 3871" d="M221.267,184.783s3.443-12.141,8.7-16.309c5.346-4.168,9.241-9.966,16.309-12.594s8.7-7.52,6.07-9.241-11.416-6.523-22.107,4.621-13.319,19.933-13.137,30.352C217.371,192.122,220.814,190.853,221.267,184.783Z" transform="translate(-217.091 -144.125)" fill="#c6c7c7"/>
        <g id="Group_4118-2" data-name="Group 4118" transform="translate(0.915 3.783)">
          <path id="Path_3872" data-name="Path 3872" d="M219.368,179.558l-1.268-.091c.544-10.419,10.057-20.839,14.587-24.282,4.893-3.715,15.312-6.8,15.765-6.886l.362,1.268c-.091,0-10.6,3.171-15.312,6.7C229.063,159.535,219.821,169.592,219.368,179.558Z" transform="translate(-218.1 -148.3)" fill="#fff"/>
        </g>
      </g>
      <g id="Group_4121" data-name="Group 4121" transform="translate(17.649)">
        <path id="Path_3873" data-name="Path 3873" d="M217.544,185.387s-5.527-15.493-7.792-20.386-1.9-16.49,1.631-21.02,9.423-11.325,6.8-21.382-1.268-16.218,3.534-12.322c4.893,3.9,13.409,12.413,13.59,26.184.181,10.51-2.9,16.671-8.7,24.282C221.893,166.9,217.182,178.23,217.544,185.387Z" transform="translate(-208.329 -109.096)" fill="#aaa"/>
        <g id="Group_4120" data-name="Group 4120" transform="translate(5.577 5.711)">
          <path id="Path_3874" data-name="Path 3874" d="M215.767,182.355c-.091-.634-2.9-15.855.091-22.2.634-1.45,1.54-3.262,2.537-5.074,3.171-6.161,7.429-14.587,7.882-20.386.725-9.332-5.164-18.483-5.255-18.574l1.087-.725c.272.362,6.161,9.513,5.436,19.3-.453,6.07-4.621,14.315-7.973,20.929-.906,1.9-1.812,3.624-2.537,5.074-2.809,6.07,0,21.292.091,21.473Z" transform="translate(-214.484 -115.4)" fill="#fff"/>
        </g>
      </g>
      <g id="Group_4123" data-name="Group 4123" transform="translate(0 42.459)">
        <path id="Path_3875" data-name="Path 3875" d="M194.06,166.687c-6.342-1.178-6.8-8.517-1.9-9.966s12.866-1.178,16.762,3.9c4.53,5.889,6.342,16.49,4.893,24.01s0-2.9-3.171-7.973S199.315,167.774,194.06,166.687Z" transform="translate(-188.849 -155.959)" fill="#c6c7c7"/>
        <g id="Group_4122" data-name="Group 4122" transform="translate(2.221 4.116)">
          <path id="Path_3876" data-name="Path 3876" d="M214.223,183.242c-1.087-7.429-3.9-13.228-8.335-17.486-5.8-5.617-14.315-3.987-14.406-3.987l-.181-1c.362-.091,9.06-1.721,15.221,4.258,4.621,4.44,7.52,10.419,8.607,18.121Z" transform="translate(-191.3 -160.502)" fill="#fff"/>
        </g>
      </g>
      <path id="Path_3877" data-name="Path 3877" d="M227.886,206.677H210.4L207.5,178.5h23.285Z" transform="translate(-190.602 -115.618)" fill="#1a3560"/>
    </g>
    <g id="Group_4130" data-name="Group 4130" transform="translate(69.347 0)">
      <g id="Group_4125" data-name="Group 4125" transform="translate(33.714 76.016)">
        <path id="Path_3878" data-name="Path 3878" d="M148.626,206.1s-1.993,1.631-1.631,3.624.906,6.8.906,6.8h2.084l-.091-4.44c0-.272,4.44,4.44,5.255,4.44H166.2s.725-2.99-5.708-3.987C153.881,211.627,148.626,206.1,148.626,206.1Z" transform="translate(-116.869 -95.383)" fill="#004060"/>
        <path id="Path_3879" data-name="Path 3879" d="M115.064,206.644l-1.178,6.433a7.454,7.454,0,0,0,1,5.346c.906,1.45,2.084,2.99,3.262,2.99,1.268,0,2.718-1.631,3.715-2.99a4.926,4.926,0,0,0,.815-3.9l-1.9-8.426Z" transform="translate(-113.748 -95.383)" fill="#004060"/>
        <path id="Path_3880" data-name="Path 3880" d="M153.838,199.056a5.448,5.448,0,0,1-1.993-2.537l-1.45-3.9c2.446-30.261-1.631-49.56-1.631-49.56,8.064-41.587-4.983-59.164-4.983-59.164H122.037s-11.688,16.943-4.983,59.164c0,0-3.987,19.389-1.631,49.56l-.725,8.517a2.458,2.458,0,0,0,1.268,2.356,4.786,4.786,0,0,0,2.174.544,4.852,4.852,0,0,0,2.174-.453,2.31,2.31,0,0,0,1.268-2.446l-1.087-8.426,6.252-44.486,6.161-40.137,6.161,40.137,6.252,44.486.634,2.9a7.173,7.173,0,0,0,2.627,3.9c2.718,1.9,7.52,4.44,10.51,1.9A25.081,25.081,0,0,1,153.838,199.056Z" transform="translate(-113.836 -83.9)" fill="#f9af89"/>
      </g>
      <path id="Path_3881" data-name="Path 3881" d="M92.9,66.186,85.655,59.3,80.4,64.827l7.248,6.886A3.818,3.818,0,0,0,92.9,66.186Z" transform="translate(-76.9 -5.573)" fill="#f5c5b0"/>
      <g id="Group_4126" data-name="Group 4126" transform="translate(0.111 34.248)">
        <rect id="Rectangle_582" data-name="Rectangle 582" width="5.255" height="4.983" transform="translate(18.363 8.877) rotate(-145.104)" fill="#929497"/>
        <path id="Path_3882" data-name="Path 3882" d="M97.078,47.529a.448.448,0,0,0,.634-.091l2.537-3.715a.453.453,0,1,0-.725-.544L96.987,46.9A.383.383,0,0,0,97.078,47.529Z" transform="translate(-78.558 -38.288)" fill="#404041"/>
        <path id="Path_3883" data-name="Path 3883" d="M91.218,38.706a3.086,3.086,0,0,0,2.809.272h0l.725.453-3.08,4.349-.725-.453a3.175,3.175,0,0,0-1.268-2.537l-1.178-1L89.859,37.8Z" transform="translate(-77.773 -37.8)" fill="#404041"/>
        <path id="Path_3884" data-name="Path 3884" d="M91.3,48.264l1.268.906,1.993-2.9a.779.779,0,0,0-1.268-.906Z" transform="translate(-78.036 -38.479)" fill="#929497"/>
        <path id="Path_3885" data-name="Path 3885" d="M92.471,46.975l1,.634a.62.62,0,0,0,.906-.181h0a.62.62,0,0,0-.181-.906l-1-.634a.62.62,0,0,0-.906.181h0A.7.7,0,0,0,92.471,46.975Z" transform="translate(-78.12 -38.549)" fill="#404041"/>
        <path id="Path_3886" data-name="Path 3886" d="M90.581,49.015l.634.453.544.362c.091,0,.091.091.091.181L91.759,51.1a1.2,1.2,0,0,1-.272.725l-10.6,15.221L76.9,64.327,87.5,49.106a2.4,2.4,0,0,1,.544-.453l1-.453h.181l.544.362Z" transform="translate(-76.683 -38.777)" fill="#bbbdbf"/>
        <path id="Path_3887" data-name="Path 3887" d="M80.864,68.709a1.16,1.16,0,0,1-1.631.272l-2.084-1.45a1.16,1.16,0,0,1-.272-1.631Z" transform="translate(-76.66 -40.441)" fill="#929497"/>
      </g>
      <path id="Path_3888" data-name="Path 3888" d="M164.868,112.163,163.6,102.2l7.52-1,1.268,9.966a3.733,3.733,0,0,1-3.352,4.077A3.822,3.822,0,0,1,164.868,112.163Z" transform="translate(-84.719 -9.51)" fill="#f5c5b0"/>
      <path id="Path_3889" data-name="Path 3889" d="M162.392,100.932l9.06-1.178L166.378,56.9,154.6,54Z" transform="translate(-83.873 -5.074)" fill="#fff"/>
      <rect id="Rectangle_583" data-name="Rectangle 583" width="41.405" height="31.711" transform="matrix(0.737, -0.676, 0.676, 0.737, 49.065, 96.632)" fill="#bbbdbf"/>
      <rect id="Rectangle_584" data-name="Rectangle 584" width="39.05" height="27.271" transform="matrix(0.737, -0.676, 0.676, 0.737, 52.262, 96.719)" fill="#f1f1f2"/>
      <path id="Path_3890" data-name="Path 3890" d="M171.713,83.887l-1.45,1.359a1.245,1.245,0,0,0-.091,1.631l6.161,6.8a1.245,1.245,0,0,0,1.631.091l1.45-1.359,1.359-1.268L178.69,88.87a2.679,2.679,0,0,0-3.534-3.805L173.072,82.8Zm5.98,2.9a.448.448,0,1,1,0-.634A.438.438,0,0,1,177.693,86.787Zm-5.708-2.537,7.158,7.792-1.45,1.359a.711.711,0,0,1-1,0l-6.161-6.8a.711.711,0,0,1,0-1Z" transform="translate(-85.312 -7.781)" fill="#929497"/>
      <path id="Path_3891" data-name="Path 3891" d="M172.761,115.622a3.99,3.99,0,0,0-4.983-2.537,3.862,3.862,0,0,0-2.99,4.621l1.087,4.077A7.945,7.945,0,0,0,172.761,115.622Z" transform="translate(-84.819 -10.614)" fill="#f5c5b0"/>
      <path id="Path_3892" data-name="Path 3892" d="M142.355,36.386l-1.9-.815V29.5H128.4v6.07l-1.9.815.453,17.033h1.45v2.627h12.05V53.419h1.45Z" transform="translate(-81.232 -2.772)" fill="#f69b81"/>
      <path id="Path_3893" data-name="Path 3893" d="M82.7,68.147l7.792-8.879,8.788,7.067,2.084-11.778a10.33,10.33,0,0,1,7.882-8.879l4.8-1.178-2.356,36.06a6.575,6.575,0,0,1-11.054,4.349Z" transform="translate(-77.116 -4.182)" fill="#fff"/>
      <path id="Path_3894" data-name="Path 3894" d="M113,97.032c-4.44,23.466,6.7,45.12-2.627,55.9a1,1,0,0,0,.725,1.631l40.137.634a1.646,1.646,0,0,0,1.54-2.356c-5.8-12.413,10.691-48.473-2.265-55.721C137.466,89.783,117.442,73.566,113,97.032Z" transform="translate(-79.695 -7.969)" fill="#1a3560"/>
      <path id="Path_3895" data-name="Path 3895" d="M141.757,37.2l-.453,1.721c-.815,2.265-2.809,5.889-7.52,5.889-5.346,0-7.429-4.621-8.064-6.7l-.272-.906c-9.876,3.715-6.8,34.61-6.8,34.61l-.091,25.641h30.9L149,71.81C149.1,71.81,151.632,40.915,141.757,37.2Z" transform="translate(-80.452 -3.496)" fill="#abdaf5"/>
      <path id="Path_3896" data-name="Path 3896" d="M122.127,68.955,124.121,36.7c-9.876,3.715-16.852,3.987-20.657,18.483-2.356,8.97,7.792,8.517,7.792,8.517s-1.359,39.322-2.174,59.979a10.7,10.7,0,0,0,10.691,11.144h0a4.447,4.447,0,0,0,4.44-4.44v-2.627C124.121,127.756,122.127,83.451,122.127,68.955Z" transform="translate(-79.034 -3.449)" fill="#fff"/>
      <path id="Path_3897" data-name="Path 3897" d="M144.082,14.9l.272-3.987c0-5.255-4.983-9.513-10.238-9.513s-10.238,4.258-10.238,9.513l.272,3.987a3.218,3.218,0,0,0-.815.362,1.8,1.8,0,0,0-.634,1.45v1.993a1.858,1.858,0,0,0,1.9,1.9c0,4.983,5.98,9.6,9.513,9.6s9.513-4.711,9.513-9.6a1.914,1.914,0,0,0,1.9-1.9V16.712A1.851,1.851,0,0,0,144.082,14.9Z" transform="translate(-80.875 -0.132)" fill="#f9af89"/>
      <path id="Path_3898" data-name="Path 3898" d="M146.784,68.955,144.791,36.7c9.876,3.715,16.852,3.987,20.657,18.483,2.356,8.97-7.792,8.517-7.792,8.517s1.359,39.322,2.174,59.979a10.7,10.7,0,0,1-10.691,11.144h0a4.447,4.447,0,0,1-4.44-4.44v-2.627C144.791,127.756,146.784,83.451,146.784,68.955Z" transform="translate(-82.943 -3.449)" fill="#fff"/>
      <path id="Path_3899" data-name="Path 3899" d="M76.594,61.932a4.648,4.648,0,0,0,6.433,1c2.174-1.45,2.99-4.258,1.631-6.252L81.94,52.6C75.6,55.952,76.594,61.932,76.594,61.932Z" transform="translate(-76.537 -4.943)" fill="#f5c5b0"/>
      <path id="Path_3900" data-name="Path 3900" d="M135.551,6.886s-3.171,6.07-7.792,7.067c-3.443.725-3.9,4.53-3.352,6.433,1.45,5.436,4.621,6.342,4.44,9.6-.362,5.074-5.255,3.987-8.335,4.983-1.721.544,2.356-4.077-.453-18.936C116.887-.091,133.286,0,133.92,0c6.07.453,14.225,1.268,13.319,12.594-1.631,20.2,2.265,21.382,4.168,23.919-6.252,2.627-12.684,3.9-11.688-11.507.091-1.9,1.9-8.788,1.721-10.419C140.715,8.064,135.551,6.886,135.551,6.886Z" transform="translate(-80.589 0)" fill="#1c2c57"/>
      <g id="Group_4129" data-name="Group 4129">
        <g id="Group_4127" data-name="Group 4127" transform="translate(33.714 76.016)">
          <path id="Path_3901" data-name="Path 3901" d="M148.626,206.1s-1.993,1.631-1.631,3.624.906,6.8.906,6.8h2.084l-.091-4.44c0-.272,4.44,4.44,5.255,4.44H166.2s.725-2.99-5.708-3.987C153.881,211.627,148.626,206.1,148.626,206.1Z" transform="translate(-116.869 -95.383)" fill="#004060"/>
          <path id="Path_3902" data-name="Path 3902" d="M115.064,206.644l-1.178,6.433a7.454,7.454,0,0,0,1,5.346c.906,1.45,2.084,2.99,3.262,2.99,1.268,0,2.718-1.631,3.715-2.99a4.926,4.926,0,0,0,.815-3.9l-1.9-8.426Z" transform="translate(-113.748 -95.383)" fill="#004060"/>
          <path id="Path_3903" data-name="Path 3903" d="M153.838,199.056a5.448,5.448,0,0,1-1.993-2.537l-1.45-3.9c2.446-30.261-1.631-49.56-1.631-49.56,8.064-41.587-4.983-59.164-4.983-59.164H122.037s-11.688,16.943-4.983,59.164c0,0-3.987,19.389-1.631,49.56l-.725,8.517a2.458,2.458,0,0,0,1.268,2.356,4.786,4.786,0,0,0,2.174.544,4.852,4.852,0,0,0,2.174-.453,2.31,2.31,0,0,0,1.268-2.446l-1.087-8.426,6.252-44.486,6.161-40.137,6.161,40.137,6.252,44.486.634,2.9a7.173,7.173,0,0,0,2.627,3.9c2.718,1.9,7.52,4.44,10.51,1.9A25.081,25.081,0,0,1,153.838,199.056Z" transform="translate(-113.836 -83.9)" fill="#c19075"/>
        </g>
        <path id="Path_3904" data-name="Path 3904" d="M92.9,66.186,85.655,59.3,80.4,64.827l7.248,6.886A3.818,3.818,0,0,0,92.9,66.186Z" transform="translate(-76.9 -5.573)" fill="#c19075"/>
        <g id="Group_4128" data-name="Group 4128" transform="translate(0.111 34.248)">
          <rect id="Rectangle_585" data-name="Rectangle 585" width="5.255" height="4.983" transform="translate(18.363 8.877) rotate(-145.104)" fill="#929497"/>
          <path id="Path_3905" data-name="Path 3905" d="M97.078,47.529a.448.448,0,0,0,.634-.091l2.537-3.715a.453.453,0,1,0-.725-.544L96.987,46.9A.383.383,0,0,0,97.078,47.529Z" transform="translate(-78.558 -38.288)" fill="#404041"/>
          <path id="Path_3906" data-name="Path 3906" d="M91.218,38.706a3.086,3.086,0,0,0,2.809.272h0l.725.453-3.08,4.349-.725-.453a3.175,3.175,0,0,0-1.268-2.537l-1.178-1L89.859,37.8Z" transform="translate(-77.773 -37.8)" fill="#404041"/>
          <path id="Path_3907" data-name="Path 3907" d="M91.3,48.264l1.268.906,1.993-2.9a.779.779,0,0,0-1.268-.906Z" transform="translate(-78.036 -38.479)" fill="#929497"/>
          <path id="Path_3908" data-name="Path 3908" d="M92.471,46.975l1,.634a.62.62,0,0,0,.906-.181h0a.62.62,0,0,0-.181-.906l-1-.634a.62.62,0,0,0-.906.181h0A.7.7,0,0,0,92.471,46.975Z" transform="translate(-78.12 -38.549)" fill="#404041"/>
          <path id="Path_3909" data-name="Path 3909" d="M90.581,49.015l.634.453.544.362c.091,0,.091.091.091.181L91.759,51.1a1.2,1.2,0,0,1-.272.725l-10.6,15.221L76.9,64.327,87.5,49.106a2.4,2.4,0,0,1,.544-.453l1-.453h.181l.544.362Z" transform="translate(-76.683 -38.777)" fill="#bbbdbf"/>
          <path id="Path_3910" data-name="Path 3910" d="M80.864,68.709a1.16,1.16,0,0,1-1.631.272l-2.084-1.45a1.16,1.16,0,0,1-.272-1.631Z" transform="translate(-76.66 -40.441)" fill="#929497"/>
        </g>
        <path id="Path_3911" data-name="Path 3911" d="M164.868,112.163,163.6,102.2l7.52-1,1.268,9.966a3.733,3.733,0,0,1-3.352,4.077A3.822,3.822,0,0,1,164.868,112.163Z" transform="translate(-84.719 -9.51)" fill="#f5c5b0"/>
        <path id="Path_3912" data-name="Path 3912" d="M162.392,100.932l9.06-1.178L166.378,56.9,154.6,54Z" transform="translate(-83.873 -5.074)" fill="#e7e6e7"/>
        <rect id="Rectangle_586" data-name="Rectangle 586" width="41.405" height="31.711" transform="matrix(0.737, -0.676, 0.676, 0.737, 49.065, 96.632)" fill="#bbbdbf"/>
        <rect id="Rectangle_587" data-name="Rectangle 587" width="39.05" height="27.271" transform="matrix(0.737, -0.676, 0.676, 0.737, 52.262, 96.719)" fill="#f1f1f2"/>
        <path id="Path_3913" data-name="Path 3913" d="M171.713,83.887l-1.45,1.359a1.245,1.245,0,0,0-.091,1.631l6.161,6.8a1.245,1.245,0,0,0,1.631.091l1.45-1.359,1.359-1.268L178.69,88.87a2.679,2.679,0,0,0-3.534-3.805L173.072,82.8Zm5.98,2.9a.448.448,0,1,1,0-.634A.438.438,0,0,1,177.693,86.787Zm-5.708-2.537,7.158,7.792-1.45,1.359a.711.711,0,0,1-1,0l-6.161-6.8a.711.711,0,0,1,0-1Z" transform="translate(-85.312 -7.781)" fill="#929497"/>
        <path id="Path_3914" data-name="Path 3914" d="M172.761,115.622a3.99,3.99,0,0,0-4.983-2.537,3.862,3.862,0,0,0-2.99,4.621l1.087,4.077A7.945,7.945,0,0,0,172.761,115.622Z" transform="translate(-84.819 -10.614)" fill="#c19075"/>
        <path id="Path_3915" data-name="Path 3915" d="M142.355,36.386l-1.9-.815V29.5H128.4v6.07l-1.9.815.453,17.033h1.45v2.627h12.05V53.419h1.45Z" transform="translate(-81.232 -2.772)" fill="#c19075"/>
        <path id="Path_3916" data-name="Path 3916" d="M82.7,68.147l7.792-8.879,8.788,7.067,2.084-11.778a10.33,10.33,0,0,1,7.882-8.879l4.8-1.178-2.356,36.06a6.575,6.575,0,0,1-11.054,4.349Z" transform="translate(-77.116 -4.182)" fill="#e7e6e7"/>
        <path id="Path_3917" data-name="Path 3917" d="M113,97.032c-4.44,23.466,6.7,45.12-2.627,55.9a1,1,0,0,0,.725,1.631l40.137.634a1.646,1.646,0,0,0,1.54-2.356c-5.8-12.413,10.691-48.473-2.265-55.721C137.466,89.783,117.442,73.566,113,97.032Z" transform="translate(-79.695 -7.969)" fill="#1a3560"/>
        <path id="Path_3918" data-name="Path 3918" d="M141.757,37.2l-.453,1.721c-.815,2.265-2.809,5.889-7.52,5.889-5.346,0-7.429-4.621-8.064-6.7l-.272-.906c-9.876,3.715-6.8,34.61-6.8,34.61l-.091,25.641h30.9L149,71.81C149.1,71.81,151.632,40.915,141.757,37.2Z" transform="translate(-80.452 -3.496)" fill="#3b96d2"/>
        <path id="Path_3919" data-name="Path 3919" d="M122.127,68.955,124.121,36.7c-9.876,3.715-16.852,3.987-20.657,18.483-2.356,8.97,7.792,8.517,7.792,8.517s-1.359,39.322-2.174,59.979a10.7,10.7,0,0,0,10.691,11.144h0a4.447,4.447,0,0,0,4.44-4.44v-2.627C124.121,127.756,122.127,83.451,122.127,68.955Z" transform="translate(-79.034 -3.449)" fill="#e7e6e7"/>
        <path id="Path_3920" data-name="Path 3920" d="M144.082,14.9l.272-3.987c0-5.255-4.983-9.513-10.238-9.513s-10.238,4.258-10.238,9.513l.272,3.987a3.218,3.218,0,0,0-.815.362,1.8,1.8,0,0,0-.634,1.45v1.993a1.858,1.858,0,0,0,1.9,1.9c0,4.983,5.98,9.6,9.513,9.6s9.513-4.711,9.513-9.6a1.914,1.914,0,0,0,1.9-1.9V16.712A1.851,1.851,0,0,0,144.082,14.9Z" transform="translate(-80.875 -0.132)" fill="#c19075"/>
        <path id="Path_3921" data-name="Path 3921" d="M146.784,68.955,144.791,36.7c9.876,3.715,16.852,3.987,20.657,18.483,2.356,8.97-7.792,8.517-7.792,8.517s1.359,39.322,2.174,59.979a10.7,10.7,0,0,1-10.691,11.144h0a4.447,4.447,0,0,1-4.44-4.44v-2.627C144.791,127.756,146.784,83.451,146.784,68.955Z" transform="translate(-82.943 -3.449)" fill="#e7e6e7"/>
        <path id="Path_3922" data-name="Path 3922" d="M76.594,61.932a4.648,4.648,0,0,0,6.433,1c2.174-1.45,2.99-4.258,1.631-6.252L81.94,52.6C75.6,55.952,76.594,61.932,76.594,61.932Z" transform="translate(-76.537 -4.943)" fill="#c19075"/>
        <path id="Path_3923" data-name="Path 3923" d="M135.551,6.886s-3.171,6.07-7.792,7.067c-3.443.725-3.9,4.53-3.352,6.433,1.45,5.436,4.621,6.342,4.44,9.6-.362,5.074-5.255,3.987-8.335,4.983-1.721.544,2.356-4.077-.453-18.936C116.887-.091,133.286,0,133.92,0c6.07.453,14.225,1.268,13.319,12.594-1.631,20.2,2.265,21.382,4.168,23.919-6.252,2.627-12.684,3.9-11.688-11.507.091-1.9,1.9-8.788,1.721-10.419C140.715,8.064,135.551,6.886,135.551,6.886Z" transform="translate(-80.589 0)" fill="#383d40"/>
      </g>
    </g>
  </g>
</svg>
