<svg xmlns="http://www.w3.org/2000/svg" xmlns:xlink="http://www.w3.org/1999/xlink" width="165" height="165" viewBox="0 0 165 165">
  <defs>
    <clipPath id="clip-path">
      <rect id="Rectangle_523" data-name="Rectangle 523" width="165" height="165"/>
    </clipPath>
  </defs>
  <g id="Group_4060" data-name="Group 4060" transform="translate(-430 -259)">
    <g id="Group_3855" data-name="Group 3855" transform="translate(430 259)">
      <g id="Group_3853" data-name="Group 3853" clip-path="url(#clip-path)">
        <path id="Path_3388" data-name="Path 3388" d="M81.97,162.849A80.88,80.88,0,1,0,1.09,81.97a80.879,80.879,0,0,0,80.88,80.88" transform="translate(0.53 0.53)" fill="#f7f6f6"/>
      </g>
      <g id="Group_3854" data-name="Group 3854" clip-path="url(#clip-path)">
        <circle id="Ellipse_190" data-name="Ellipse 190" cx="80.88" cy="80.88" r="80.88" transform="translate(1.62 1.62)" fill="none" stroke="#dcdddc" stroke-width="4"/>
      </g>
    </g>
    <g id="Group_3852" data-name="Group 3852" transform="translate(179.973 -28.639)">
      <g id="Group_3846" data-name="Group 3846" transform="translate(317.685 368.38)">
        <path id="Path_706" data-name="Path 706" d="M.679,2.379A1.95,1.95,0,0,1-1.283.44v-3A1.95,1.95,0,0,1,.679-4.5,1.95,1.95,0,0,1,2.64-2.56v3A1.95,1.95,0,0,1,.679,2.379" transform="translate(1.283 4.497)" fill="#1e9be9"/>
      </g>
      <g id="Group_3847" data-name="Group 3847" transform="translate(342.048 368.38)">
        <path id="Path_707" data-name="Path 707" d="M.679,2.379A1.95,1.95,0,0,1-1.283.44v-3A1.95,1.95,0,0,1,.679-4.5,1.95,1.95,0,0,1,2.64-2.56v3A1.95,1.95,0,0,1,.679,2.379" transform="translate(1.283 4.497)" fill="#1e9be9"/>
      </g>
      <g id="Group_3848" data-name="Group 3848" transform="translate(319.787 388.907)">
        <path id="Path_708" data-name="Path 708" d="M8.264,4.373A1.95,1.95,0,0,1,6.3,2.434c0-3.763-4.038-6.825-9-6.825s-9,3.062-9,6.825A1.951,1.951,0,0,1-13.66,4.373a1.951,1.951,0,0,1-1.963-1.939c0-5.9,5.8-10.7,12.924-10.7s12.924,4.8,12.924,10.7A1.95,1.95,0,0,1,8.264,4.373" transform="translate(15.623 8.267)" fill="#1e9be9"/>
      </g>
      <g id="Group_3849" data-name="Group 3849" transform="translate(294.073 358.955)">
        <path id="Path_709" data-name="Path 709" d="M13.557,19.534c-9.42,0-25.342-9.837-28.62-16.256-1.211-2.376-1.945-8.652-2.709-16-.046-.443-.089-.868-.133-1.272A5.958,5.958,0,0,1-22.652-16.2c-3.6-4.272-3.472-14.368-2.04-18.21a3.253,3.253,0,0,1,2.376-2.381,11.416,11.416,0,0,1,6.365.786,1.924,1.924,0,0,1,.709,2.65,1.972,1.972,0,0,1-2.682.7,8.36,8.36,0,0,0-3.113-.384c-.82,2.136-1.313,10.273,1.089,13.938.823,1.258,1.618,1.316,2.306,1.2.122-.02.226-.04.316-.054a2.246,2.246,0,0,1,.214-.125,1.993,1.993,0,0,1,1.83,0A1.94,1.94,0,0,1-14.244-16.6c.11.922.235,2.125.376,3.483C-13.406-8.673-12.546-.4-11.559,1.533c2.676,5.241,17.39,14.126,25.116,14.126S36,6.774,38.674,1.534c.985-1.925,1.842-10.175,2.306-14.609.142-1.376.268-2.6.381-3.529A1.932,1.932,0,0,1,42.4-18.09a1.978,1.978,0,0,1,1.827,0,1.748,1.748,0,0,1,.2.122c.09.017.2.035.327.057a2.1,2.1,0,0,0,2.3-1.2c2.4-3.663,1.91-11.8,1.089-13.939a8.381,8.381,0,0,0-3.116.388,2,2,0,0,1-2.668-.748,1.9,1.9,0,0,1,.7-2.605,11.469,11.469,0,0,1,6.37-.786,3.247,3.247,0,0,1,2.37,2.379c1.437,3.842,1.563,13.938-2.038,18.211A5.856,5.856,0,0,1,45.019-14c-.044.417-.09.858-.136,1.316-.764,7.328-1.5,13.586-2.7,15.958C38.9,9.7,22.976,19.534,13.557,19.534M45-17.388a2.048,2.048,0,0,1,.387,1.1,1.861,1.861,0,0,0-.387-1.1" transform="translate(25.629 36.931)" fill="#1e9be9"/>
      </g>
      <g id="Group_3850" data-name="Group 3850" transform="translate(301.104 344.398)">
        <path id="Path_710" data-name="Path 710" d="M21.409,8.4a2,2,0,0,1-.315-.024c-1.514-.24-1.734-1.4-2.171-3.7-.815-4.324-2.67-14.135-8.666-16.4C1.38-2.257-10.168-3.779-19.509-5.013c-6-.794-11.186-1.477-14.034.853C-35.335-2.7-36.321.048-36.553,4.226A2.043,2.043,0,0,1-38.62,6.053a1.947,1.947,0,0,1-1.852-2.043c.3-5.315,1.745-8.964,4.428-11.155,4.169-3.413,10.426-2.59,17.054-1.711C-9.838-7.649.518-6.284,8.11-15.182a1.962,1.962,0,0,1,1.911-.647c9.4,1.983,11.753,14.458,12.759,19.783.124.651.213,1.165.3,1.485a1.9,1.9,0,0,1,.268,1.327A1.954,1.954,0,0,1,21.409,8.4m.316-3.851s0,0,0,0,0,0,0,0m-.008,0h0" transform="translate(40.475 15.872)" fill="#1e9be9"/>
      </g>
      <g id="Group_3851" data-name="Group 3851" transform="translate(293.028 325.639)">
        <path id="Path_711" data-name="Path 711" d="M24.2,14.885a1.97,1.97,0,0,1-1.439-.619C19.964,11.286,26.2-.586,26.274-.7a8.828,8.828,0,0,0-1.159-11.556c-2.322-1.971-5.18-1.775-7.842.529a1.976,1.976,0,0,1-2.419.128,1.924,1.924,0,0,1-.7-2.293,3.49,3.49,0,0,0-.2-3.42c-2.729-4.221-14-6.334-22.813-6.862-11.261-.673-22.344,2.31-28.266,7.6-6.925,6.2-5.585,10.493.035,17.774.943,1.223,1.986,4.148,3.595,10.094.09.332.156.578.193.7a1.921,1.921,0,0,1-.387,1.968,1.986,1.986,0,0,1-2.772.139c-.442-.4-.508-.639-.824-1.806-1.8-6.643-2.607-8.333-2.926-8.749-5.217-6.758-9.481-14.1.453-23,6.663-5.958,18.9-9.342,31.135-8.6,6.348.381,21.578,1.982,25.887,8.646a7.144,7.144,0,0,1,1.04,2.566,9.132,9.132,0,0,1,9.371,1.636,12.688,12.688,0,0,1,1.91,16.581c-1.312,2.03-3.776,8.906-3.673,10.6a1.927,1.927,0,0,1-.37,2.381,1.975,1.975,0,0,1-1.336.517m1.439-3.257s0,0,0,0,0,0,0,0" transform="translate(45.756 28.141)" fill="#1e9be9"/>
      </g>
    </g>
  </g>
</svg>
