<svg xmlns="http://www.w3.org/2000/svg" xmlns:xlink="http://www.w3.org/1999/xlink" width="165" height="165" viewBox="0 0 165 165">
  <defs>
    <clipPath id="clip-path">
      <rect id="Rectangle_523" data-name="Rectangle 523" width="165" height="165"/>
    </clipPath>
    <clipPath id="clip-path-3">
      <rect id="Rectangle_525" data-name="Rectangle 525" width="68.635" height="95.35" fill="#1e9be9"/>
    </clipPath>
  </defs>
  <g id="Group_4061" data-name="Group 4061" transform="translate(-430 -259)">
    <g id="Group_3856" data-name="Group 3856" transform="translate(430 259)">
      <g id="Group_3853" data-name="Group 3853" clip-path="url(#clip-path)">
        <path id="Path_3388" data-name="Path 3388" d="M81.97,162.849A80.88,80.88,0,1,0,1.09,81.97a80.879,80.879,0,0,0,80.88,80.88" transform="translate(0.53 0.53)" fill="#f7f6f6"/>
      </g>
      <g id="Group_3854" data-name="Group 3854" clip-path="url(#clip-path)">
        <circle id="Ellipse_190" data-name="Ellipse 190" cx="80.88" cy="80.88" r="80.88" transform="translate(1.62 1.62)" fill="none" stroke="#dcdddc" stroke-width="4"/>
      </g>
    </g>
    <g id="Group_3858" data-name="Group 3858" transform="translate(474 292)">
      <g id="Group_3857" data-name="Group 3857" clip-path="url(#clip-path-3)">
        <path id="Path_3389" data-name="Path 3389" d="M35.053,56.589c3.855-1.2,7.75-2.583,11.671-4.109V64.847ZM8.632,47.3c24.293-2.918,47.849-15.432,48.3-15.633.174-.08.361-.161.535-.228a3.891,3.891,0,0,1,.522-.161c.161-.04.335-.067.509-.094.2-.027.4-.054.589-.067h.027c.094,0,.4.013.468,0a5.084,5.084,0,0,1,.616.067c.161.027.335.054.5.094s.348.107.522.161.335.12.482.187a4.1,4.1,0,0,1,.482.268l.442.281a3.6,3.6,0,0,1,.428.361c.134.12.254.241.375.361a3.727,3.727,0,0,1,.348.428,5.293,5.293,0,0,1,.335.5c.027.04.214.4.241.442.08.174.161.361.228.549a3.212,3.212,0,0,1,.161.509c.04.174.067.348.094.509.027.214.054.415.067.616l1.86-.094-1.834.308v48.5a5.573,5.573,0,0,1-8.794,4.551L28.348,70.04a1.858,1.858,0,0,0-2.931,1.512V86.035a5.581,5.581,0,0,1-11.163,0V61.541a136.434,136.434,0,0,0,16.275-3.6L47.514,69.96a1.843,1.843,0,0,0,1.071.335,1.768,1.768,0,0,0,.857-.214,1.855,1.855,0,0,0,1-1.646V50.927l5.648-2.61a1.85,1.85,0,1,0-1.553-3.359L47.875,48.05a174.883,174.883,0,0,1-17.507,6.09c-.013,0-.027.027-.04.027a128.673,128.673,0,0,1-17.895,3.908h-.027a1.8,1.8,0,0,0-.268.013l-.8.12c-.455.067-.9.134-1.352.187A5.589,5.589,0,0,1,8.632,47.3M34.3,17.078A13.364,13.364,0,1,1,47.675,30.436,13.372,13.372,0,0,1,34.3,17.078M10.413,62.063c.04,0,.08-.013.12-.013v24a9.3,9.3,0,0,0,18.6,0V75.166L53.992,92.753a9.288,9.288,0,0,0,14.656-7.589V36.66c0-.067-.027-.321-.04-.428-.013-.321-.054-.642-.094-.977a8.534,8.534,0,0,0-.161-.843,6.352,6.352,0,0,0-.268-.857,7.6,7.6,0,0,0-.361-.883c-.054-.134-.107-.268-.174-.4-.013-.027-.228-.348-.241-.361a8.371,8.371,0,0,0-.535-.8c-.187-.241-.375-.482-.589-.709-.187-.214-.388-.4-.6-.6-.241-.214-.482-.415-.736-.6-.214-.161-.455-.308-.7-.455a8.724,8.724,0,0,0-1.62-.763c-.294-.107-.6-.2-.9-.281a3.971,3.971,0,0,0-.549-.107,16.944,16.944,0,0,0,3.694-10.48A17.1,17.1,0,1,0,43.726,33.662c-8.914,3.707-22.071,8.325-35.535,9.945a9.3,9.3,0,1,0,2.222,18.457" transform="translate(0)" fill="#1e9be9"/>
      </g>
    </g>
  </g>
</svg>
