<svg xmlns="http://www.w3.org/2000/svg" xmlns:xlink="http://www.w3.org/1999/xlink" width="165" height="165" viewBox="0 0 165 165">
  <defs>
    <clipPath id="clip-path">
      <rect id="Rectangle_523" data-name="Rectangle 523" width="165" height="165"/>
    </clipPath>
  </defs>
  <g id="Group_4062" data-name="Group 4062" transform="translate(-430 -259)">
    <g id="Group_3856" data-name="Group 3856" transform="translate(430 259)">
      <g id="Group_3853" data-name="Group 3853" clip-path="url(#clip-path)">
        <path id="Path_3388" data-name="Path 3388" d="M81.97,162.849A80.88,80.88,0,1,0,1.09,81.97a80.879,80.879,0,0,0,80.88,80.88" transform="translate(0.53 0.53)" fill="#f7f6f6"/>
      </g>
      <g id="Group_3854" data-name="Group 3854" clip-path="url(#clip-path)">
        <circle id="Ellipse_190" data-name="Ellipse 190" cx="80.88" cy="80.88" r="80.88" transform="translate(1.62 1.62)" fill="none" stroke="#dcdddc" stroke-width="4"/>
      </g>
    </g>
    <g id="Group_3862" data-name="Group 3862" transform="translate(460.006 281.989)">
      <g id="Group_3860" data-name="Group 3860" transform="translate(-0.006 12.338)">
        <g id="Group_3859" data-name="Group 3859">
          <path id="Path_3390" data-name="Path 3390" d="M23.416,106.726a8.252,8.252,0,0,1-4.147-1.089,6.625,6.625,0,0,1-3.309-5.948L16.379,83.7c-1.3-.2-2.6-.419-3.923-.656a2.061,2.061,0,0,1-1.284-.866,1.953,1.953,0,0,1-.265-1.522L16.17,58.837,11.507,65.19c-2.164,2.96-4.942,4.063-7.6,3.058A6.1,6.1,0,0,1,.393,60.4a2.271,2.271,0,0,1,.154-.321L13.056,39.6c1.312-3.086,5.459-4.761,10.066-5.487a11.459,11.459,0,1,1,11.239-.1c-.014.014-.028.014-.056.028,4.956.684,9.494,2.387,10.876,5.641l5.7,9.354,3.127-12.957c.782-4.314,8.824-5.878,15.023-6.422a11.458,11.458,0,1,1,12.845-.07c6.6.5,14.7,2.052,15.791,6.576l5.724,23.931a6.477,6.477,0,0,1-3.756,7.847c-2.639,1.005-6.255.056-8.419-5.627l-1.075-3.2.433,40.377a6.462,6.462,0,0,1-3.365,5.822,10,10,0,0,1-9.592.056,7.346,7.346,0,0,1-1.829-1.466,6.819,6.819,0,0,1-1.829,1.466,10,10,0,0,1-9.592-.056A6.462,6.462,0,0,1,61,99.494l.433-40.377L60.387,62.23c-1.857,4.9-4.579,5.892-6.129,6.031-.014,0-.014.014-.028.014-2.653,1.005-5.431-.112-7.6-3.058l-4.663-6.353,5.264,21.822a1.914,1.914,0,0,1-.251,1.508,1.987,1.987,0,0,1-1.257.88c-1.312.279-2.639.531-3.965.74l.447,15.847a6.6,6.6,0,0,1-3.309,5.92,8.781,8.781,0,0,1-8.545.126,6.608,6.608,0,0,1-1.438-1.089,6.785,6.785,0,0,1-1.466,1.117A8.5,8.5,0,0,1,23.416,106.726ZM20.3,84.206l-.4,15.553a2.668,2.668,0,0,0,1.368,2.485,4.528,4.528,0,0,0,4.286.014A2.836,2.836,0,0,0,27,99.62V84.68C24.8,84.611,22.564,84.443,20.3,84.206ZM30.928,99.634a2.76,2.76,0,0,0,1.424,2.6,4.91,4.91,0,0,0,4.593-.084,2.66,2.66,0,0,0,1.4-2.443L37.908,84.29c-2.29.237-4.621.377-6.981.419Zm45.306-30.52h0A1.966,1.966,0,0,1,78.2,71.082l-.014,28.5a2.531,2.531,0,0,0,1.424,2.346,6.1,6.1,0,0,0,5.641-.042,2.6,2.6,0,0,0,1.424-2.387l-.251-20.049-.307-32.768a1.955,1.955,0,0,1,1.634-1.955,1.987,1.987,0,0,1,2.192,1.312l4.984,14.9c.712,1.871,1.983,3.8,3.323,3.281a2.519,2.519,0,0,0,1.424-2.9,1.527,1.527,0,0,1-.07-.237L93.853,37.029c-.363-1.536-7.33-4.119-19.993-3.77-10.974.307-15.819,2.653-15.986,3.588L53.895,53.392a1.949,1.949,0,0,1-2.206,1.48,1.978,1.978,0,0,1-2.3-.838L41.776,41.552a2.272,2.272,0,0,1-.154-.321c-.684-1.8-5.6-3.658-12.621-3.658h0c-6.855,0-11.644,1.815-12.314,3.574a1.407,1.407,0,0,1-.168.321L4.023,61.923a2.125,2.125,0,0,0,.1,1.494,2.1,2.1,0,0,0,1.187,1.131c1.145.433,2.276-.684,3.03-1.7L18.781,48.617a1.965,1.965,0,0,1,3.49,1.634L15.221,79.542a79.262,79.262,0,0,0,27.77.042L35.912,50.251A1.983,1.983,0,0,1,36.987,48a1.956,1.956,0,0,1,2.415.614L49.846,62.844c.754,1.019,1.871,2.15,3.03,1.717a2.468,2.468,0,0,1,.433-.112,2.192,2.192,0,0,1,.614-.14c.963-.056,2.01-1.34,2.806-3.435l4.956-14.827a1.964,1.964,0,0,1,3.826.642l-.545,52.8a2.571,2.571,0,0,0,1.424,2.387,6.1,6.1,0,0,0,5.641.042,2.555,2.555,0,0,0,1.424-2.346,1.957,1.957,0,0,1,.8-1.578l.014-26.918A1.984,1.984,0,0,1,76.234,69.113ZM28.791,16.673a7.363,7.363,0,0,0-3.756,1.019A7.431,7.431,0,0,0,28.666,31.6a7.363,7.363,0,0,0,3.756-1.019,7.426,7.426,0,0,0-3.63-13.906Zm46.744-3.951a7.363,7.363,0,0,0-3.756,1.019,7.426,7.426,0,0,0,3.63,13.906,7.363,7.363,0,0,0,3.756-1.019,7.426,7.426,0,0,0-3.63-13.906Z" transform="translate(0.006 -8.84)" fill="#1e9be9"/>
        </g>
      </g>
      <g id="Group_3861" data-name="Group 3861" transform="translate(37.034 0.011)">
        <path id="Path_3391" data-name="Path 3391" d="M40.075,23.144a1.646,1.646,0,0,1-.935-.293c-8.14-5.794-11.77-8.81-12.5-13.4a8.05,8.05,0,0,1,2.89-7.874A8.658,8.658,0,0,1,36.1.149,7.983,7.983,0,0,1,40.061,2.09,8.028,8.028,0,0,1,44.041.149,8.671,8.671,0,0,1,50.6,1.573a8.072,8.072,0,0,1,2.89,7.874c-.712,4.593-4.356,7.609-12.5,13.4A1.6,1.6,0,0,1,40.075,23.144ZM34.5,3.207a5.162,5.162,0,0,0-3.03.921,5.055,5.055,0,0,0-1.647,4.817c.475,3.072,3.016,5.431,10.248,10.625,7.232-5.194,9.773-7.553,10.248-10.625.112-.754.349-3.309-1.647-4.817A5.391,5.391,0,0,0,44.627,3.3a4.642,4.642,0,0,0-3.2,2.122,1.624,1.624,0,0,1-1.354.754h0a1.592,1.592,0,0,1-1.354-.754,4.69,4.69,0,0,0-3.2-2.122A5.042,5.042,0,0,0,34.5,3.207Z" transform="translate(-26.524 -0.011)" fill="#1e9be9"/>
      </g>
    </g>
  </g>
</svg>
