<svg xmlns="http://www.w3.org/2000/svg" width="284.727" height="215.681" viewBox="0 0 284.727 215.681">
  <g id="Group_4103" data-name="Group 4103" transform="translate(-0.009)">
    <path id="Path_3762" data-name="Path 3762" d="M270.918,202.209c-6.255-.942-13.195-.171-19.278-.257-15.508-.086-31.016-.428-46.524-.942-26.989-.857-54.063-2.056-81.052-4.027-85.508-6.426-155.422,4.541-109.5,16.793,12.852,3.427-24.161,24.161,66.487,28.7,79.6,4.027,104.7-3.6,143.941-7.454,12.081-1.2,24.076-2.57,35.385-6.426,7.368-2.57,23.647-7.026,24.333-15.422C285.226,206.75,277.173,203.152,270.918,202.209Z" transform="translate(0 -27.938)" fill="#e7e6e7"/>
    <g id="Group_4103-2" data-name="Group 4103" transform="translate(55.358 112.325)">
      <path id="Path_3763" data-name="Path 3763" d="M84.271,190.739a11.863,11.863,0,0,1,1.885-8.654c3-4.455-1.371-6.854,1.8-11.567,3.084-4.627,3.341-4.8,3.084-8.482s2.485-5.055,4.284-8.568a17.47,17.47,0,0,0,1.885-6.769s1.371,2.056,1.028,6-1.971,4.541-1.714,7.882.257,5.141-2.142,8.311-2.228,3.427-2.056,7.026c.171,3.684,1.028,6.426-1.971,9.682a18.073,18.073,0,0,0-3.941,7.2A2.469,2.469,0,0,1,84.271,190.739Z" transform="translate(-67.4 -133.334)" fill="#7d8180"/>
      <path id="Path_3764" data-name="Path 3764" d="M76.4,190.469a9.682,9.682,0,0,1-1.2-7.8c1.285-4.37-3.77-5.826-2.4-10.367,1.371-4.455,1.542-4.627,0-7.8-1.628-3.17.6-4.712,1.114-8.139a13.139,13.139,0,0,0-.6-6.169,11.148,11.148,0,0,1,3.17,5.141c1.028,3.513-.343,4.2,1.2,7.111s2.142,4.455.942,7.54-.942,3.256.514,6.512c1.457,3.17,3.341,5.483,1.542,8.825a12.164,12.164,0,0,0-1.285,6.854S77.172,192.011,76.4,190.469Z" transform="translate(-65.699 -133.835)" fill="#7d8180"/>
      <path id="Path_3765" data-name="Path 3765" d="M78,186.449a16.853,16.853,0,0,1,.6-10.8c2.228-5.74-2.4-8.4,0-14.394s2.656-6.169,1.8-10.71,1.714-6.426,3-10.967a24.754,24.754,0,0,0,.857-8.482s1.714,2.485,1.885,7.368c.257,4.884-1.285,5.74-.514,9.853s1.114,6.34-.857,10.367c-1.885,4.027-1.714,4.37-.942,8.911.685,4.541,2.056,7.882-.514,12.166a23.944,23.944,0,0,0-2.827,9.168A3.128,3.128,0,0,1,78,186.449Z" transform="translate(-66.439 -131.1)" fill="#7d8180"/>
      <path id="Path_3766" data-name="Path 3766" d="M83.83,194.343a8.694,8.694,0,0,1-.6-6.512c1.114-3.513-2.57-4.969-1.371-8.568,1.2-3.684,1.285-3.77.257-6.426s.6-3.941,1.114-6.683a11.923,11.923,0,0,0-.171-5.055,9.633,9.633,0,0,1,2.142,4.37c.685,2.913-.428,3.513.6,5.912s1.371,3.77.428,6.255c-1.028,2.485-.771,2.656.171,5.312s2.228,4.627.857,7.283a12.325,12.325,0,0,0-1.2,5.655A3.05,3.05,0,0,1,83.83,194.343Z" transform="translate(-67.045 -135.396)" fill="#979a9a"/>
      <path id="Path_3767" data-name="Path 3767" d="M74.369,189.152a8.293,8.293,0,0,1-3.256-7.2c.514-4.627-1.114-5.312-2.913-8.139s2.142-5.74,0-8.568-4.969-3.427-2.827-7.2,2.485-4.884,1.714-7.625c-.857-2.742,2.4-7.625,2.4-7.625s-1.542,5.226,0,8.482-1.542,4.712.086,7.968c3.256,6.512.857,9.767,3.6,12.938s2.4,5.655,1.8,8.739,1.971,9.339,1.971,9.339A4.813,4.813,0,0,1,74.369,189.152Z" transform="translate(-64.609 -132.776)" fill="#979a9a"/>
      <path id="Path_3768" data-name="Path 3768" d="M92.583,157.637c-1.285,4.541.171,5.312,1.371,8.225,1.285,2.913-3.17,5.569-1.542,8.568s4.37,3.684,1.542,7.368c-2.827,3.6-3.427,4.712-3.084,7.454s-3.77,7.368-3.77,7.368,2.485-5.055,1.542-8.4,2.4-4.627,1.371-7.882c-2.056-6.683.942-9.682-1.2-13.109-2.142-3.341-1.371-5.74-.171-8.739,1.114-3,.343-15.594.343-15.594S93.869,153.1,92.583,157.637Z" transform="translate(-67.83 -132.79)" fill="#979a9a"/>
      <path id="Path_3769" data-name="Path 3769" d="M67.386,189.607c-.685,1.542,2.913,27.246,4.455,28.7,2.228,2.228,16.964,1.714,19.278.343s5.141-28.1,4.884-29.388C95.831,187.98,67.985,188.322,67.386,189.607Z" transform="translate(-64.995 -139.314)" fill="#59595c"/>
    </g>
    <path id="Path_3770" data-name="Path 3770" d="M227.864,203.77l-2.827,15.165-9.6,2.485-5.141.171s9.339-4.027,11.224-6.083c2.827-3.17,1.971-15.508,1.971-15.508Z" transform="translate(-30.116 -28.642)" fill="#fcd6b9"/>
    <path id="Path_3771" data-name="Path 3771" d="M224.864,224.352l-1.971.171-1.114-1.371-8.482,2.485-5.4.428a4.316,4.316,0,0,1,.771-1.114,36.807,36.807,0,0,1,4.884-2.313s-.086,1.2.514,1.371,6.512-1.457,7.882-1.971c2.4-.942,2.913-1.714,3.084-1.542C225.464,220.839,224.864,224.352,224.864,224.352Z" transform="translate(-29.772 -31.574)" fill="#383d40"/>
    <path id="Path_3772" data-name="Path 3772" d="M234.553,90.3l-4.884,50.722L224.1,189.521l7.368.942s9.168-48.666,10.2-52.864,11.4-37.784,7.625-46.7C245.52,81.908,234.553,90.3,234.553,90.3Z" transform="translate(-32.092 -12.423)" fill="#3b96d2"/>
    <path id="Path_3773" data-name="Path 3773" d="M251.1,41.481A11.141,11.141,0,1,0,262.238,30.6,11.009,11.009,0,0,0,251.1,41.481Z" transform="translate(-35.959 -4.382)" fill="#7d8080"/>
    <path id="Path_3774" data-name="Path 3774" d="M241.5,14.822a8.044,8.044,0,0,0,8.054,8.054l1.971-3.77a8.044,8.044,0,0,0,8.054-8.054v-3A8.044,8.044,0,0,0,251.524,0h-1.971A8.044,8.044,0,0,0,241.5,8.054Z" transform="translate(-34.584)" fill="#7d8080"/>
    <path id="Path_3775" data-name="Path 3775" d="M260.1,11.053v-3A8.045,8.045,0,0,0,252.043,0h-1.971a8.159,8.159,0,0,0-4.884,1.628,17.344,17.344,0,0,0,.428,5.483c1.371,5.826,5.226,10.2,9.6,11.31A8.206,8.206,0,0,0,260.1,11.053Z" transform="translate(-35.103)" fill="#7d8080"/>
    <path id="Path_3776" data-name="Path 3776" d="M251.2,24.653a10.669,10.669,0,0,0,21.334,0,10.669,10.669,0,0,0-21.334,0Z" transform="translate(-35.973 -2.034)" fill="#7d8080"/>
    <path id="Path_3777" data-name="Path 3777" d="M248.9,40.9a10.968,10.968,0,1,0,10.967-10.8A10.9,10.9,0,0,0,248.9,40.9Z" transform="translate(-35.644 -4.311)" fill="#7d8080"/>
    <path id="Path_3778" data-name="Path 3778" d="M262.073,19.05c-3.941-2.656-8.568-2.827-10.281-.257s.086,6.769,4.027,9.425,8.568,2.827,10.281.257C267.814,25.99,266.014,21.792,262.073,19.05Z" transform="translate(-35.965 -2.429)" fill="#7d8080"/>
    <path id="Path_3779" data-name="Path 3779" d="M244.913,3.6a19.5,19.5,0,0,0,.171,2.228c.771,5.141,3.941,9.082,7.368,9.51a26.311,26.311,0,0,0,1.114,6.255c.6,2.056,3,4.2,3,4.2.6,3.6-11.652,8.911-11.4,8.311s3.341-4.8,4.284-8.739a7.97,7.97,0,0,0-1.2-6.512,6.7,6.7,0,0,0-4.712-2.228.973.973,0,0,1-.685-.257,5.525,5.525,0,0,1-.257-1.714v-6.6A5.9,5.9,0,0,1,244.913,3.6Z" transform="translate(-34.742 -0.516)" fill="#fcd6b9"/>
    <path id="Path_3780" data-name="Path 3780" d="M241.34,81.737l-5.74,1.457s3.77-16.365,4.8-22.7.942-8.482.6-10.453-1.285-4.284,0-6.512,3.256-5.826,4.027-6.169a9.264,9.264,0,0,0,3.684-2.056C249.309,34.785,241.34,81.737,241.34,81.737Z" transform="translate(-33.739 -5.055)" fill="#bdddf4"/>
    <path id="Path_3781" data-name="Path 3781" d="M259.408,202.614l-.771,16.108-9.6,2.485-5.141.171s9.082-3.77,10.539-6.169c1.885-3.17,0-13.709,0-13.709Z" transform="translate(-34.928 -28.857)" fill="#fcd6b9"/>
    <path id="Path_3782" data-name="Path 3782" d="M258.393,223.852l-1.971.171-1.114-1.371-7.711,2.142-6.6.343a1.269,1.269,0,0,1,.257-.771c.942-.857,5.74-2.313,5.74-2.313s-.171,1.457.428,1.628,6.512-1.628,7.968-2.142c2.4-.942,2.913-1.714,3.084-1.542C258.907,220.339,258.393,223.852,258.393,223.852Z" transform="translate(-34.513 -31.502)" fill="#383d40"/>
    <path id="Path_3783" data-name="Path 3783" d="M260.034,90.641l-1.371,44.3s1.8,12,1.971,16.022c.343,9-.086,36.071-.086,36.071l-8.054.343s-5.655-48.923-6.34-53.207c-.771-4.284-8.911-38.3-4.2-46.781S260.034,90.641,260.034,90.641Z" transform="translate(-34.44 -12.074)" fill="#72b4df"/>
    <path id="Path_3784" data-name="Path 3784" d="M238.6,84.21s3.941-17.393,5.226-25.1c1.2-7.711,4.627-22.448,4.969-24.333a26.665,26.665,0,0,1,1.371-4.37s2.913-2.142,5.569-1.714,4.8,6.34,5.912,12.081-6.769,21.677-6.769,23.048,5.569,13.109,5.569,16.536V84.21S245.454,80.612,238.6,84.21Z" transform="translate(-34.169 -4.101)" fill="#2a436b"/>
    <path id="Path_3785" data-name="Path 3785" d="M257.183,26.1l-2.228,1.457L251.7,29.7l.685,3.427,6-5.4Z" transform="translate(-36.045 -3.738)" fill="#1a3560"/>
    <path id="Path_3786" data-name="Path 3786" d="M270.127,70.1s-5.055,6.683-7.711,6.426a21.182,21.182,0,0,1-2.57-.428,36.169,36.169,0,0,0-3.6-.514c-1.457-.171-1.628-.171-1.628-.171s0,.771.514,1.028c.514.171,1.714.343,2.142.514s-1.028-.086-3.17.086a31.285,31.285,0,0,0-5.141.857c-.6.171-.6.171-.6.257,0,.257,0,.514.257.514h1.028a5.816,5.816,0,0,1-1.714.6c-.257.086-.514.086-.771.171-.428.171-.171.6.514.771a1.2,1.2,0,0,0,.343.428c.086,0,.171.086.257.086a.932.932,0,0,1,.428.086,7.5,7.5,0,0,0,1.371.171,12.547,12.547,0,0,1,1.8,0,7.138,7.138,0,0,0-1.285.343c.086.257.257.514.514.428.428,0,1.028-.086,2.742-.257a13.427,13.427,0,0,1,4.627-.171c2.056.257,1.885.685,3.341.086,1.971-.771,9.168-6.34,10.453-7.2C273.64,73.527,270.127,70.1,270.127,70.1Z" transform="translate(-35.365 -10.039)" fill="#fcd6b9"/>
    <path id="Path_3787" data-name="Path 3787" d="M274.092,59,257.984,41.524s-1.971-4.627-1.885-6.94c.086-2.742,3.427-4.884,3.427-4.884s7.368,6.6,16.022,16.108c8.739,9.51,13.452,13.709,8.739,17.393-4.8,3.684-12.338,8.482-12.338,8.482l-2.913-7.454Z" transform="translate(-36.675 -4.253)" fill="#1a3560"/>
    <g id="Group_4104" data-name="Group 4104" transform="translate(107.186 2.068)">
      <path id="Path_3788" data-name="Path 3788" d="M128.1,210.271l-3,3,7.368,9.51s1.714-2.056-.685-6.083c-2.4-3.941,4.884-6.6,4.884-6.6Z" transform="translate(-125.1 -32.157)" fill="#1a3560"/>
      <path id="Path_3789" data-name="Path 3789" d="M193.885,54.226s-1.2-.257-1.285-2.228,2.056-2.913,2.056-2.913l5.483-1.285Z" transform="translate(-134.766 -8.914)" fill="#ad704d"/>
      <path id="Path_3790" data-name="Path 3790" d="M192.663,55.124c2.57-3.084,4.8-5.4,4.8-5.4s5.312-4.8,5.226-5.826l-.514,3.513s0,2.4-2.913,5.312l-7.026,5.483S191.121,57.009,192.663,55.124Z" transform="translate(-134.659 -8.355)" fill="#ad704d"/>
      <path id="Path_3791" data-name="Path 3791" d="M199.9,40.867s-1.542-.685-2.313.514a7.01,7.01,0,0,0-.685,3.341A4.838,4.838,0,0,0,199.9,40.867Z" transform="translate(-135.382 -7.893)" fill="#ad704d"/>
      <path id="Path_3792" data-name="Path 3792" d="M193.8,48.138l4.969,1.714L205.8,38.028,200.654,37Z" transform="translate(-134.939 -7.367)" fill="#6b6c6d"/>
      <path id="Path_3793" data-name="Path 3793" d="M195.3,47.182l3.341,1.114,5.312-9-3.513-.6Z" transform="translate(-135.153 -7.61)" fill="#c6c7c7"/>
      <path id="Path_3794" data-name="Path 3794" d="M200.789,49.623s-.857-3.856,3.513-6.94c1.285-.942-1.2,4.969-1.2,4.969Z" transform="translate(-135.93 -8.166)" fill="#ad704d"/>
      <path id="Path_3795" data-name="Path 3795" d="M188.066,50.985c-2.485,4.027-8.568,21.077-8.568,21.077s-6.854-12.081-9.51-16.536-8.482-10.281-13.109-8.482c-3.77,1.457,1.371,9.682,4.627,16.108s14.48,19.963,18.25,20.306,6.769-19.62,9.853-27.417Z" transform="translate(-129.461 -8.757)" fill="#ad704d"/>
      <path id="Path_3796" data-name="Path 3796" d="M163.814,114.96l8.054,48.066-39.5,37.613-3.77-5.226,30.93-38.127L140,112.561S161.244,105.278,163.814,114.96Z" transform="translate(-125.601 -17.812)" fill="#aaa"/>
      <path id="Path_3797" data-name="Path 3797" d="M150.189,42.176a12.782,12.782,0,0,1-1.8-.171c-.514-3.256,2.313-6.169,3.684-8.739,1.285-2.4,2.4-6.683,6-4.284,2.142,1.371,1.628,6.769,2.313,9.253.6,1.971,2.228,4.37,1.885,6.426-.6,4.2-3.77-.6-5.826-1.628C154.13,41.834,152.331,42.262,150.189,42.176Z" transform="translate(-128.426 -6.118)" fill="#ad704d"/>
      <path id="Path_3798" data-name="Path 3798" d="M153,218.726l.171,4.2,12,1.028s-.343-2.656-4.884-3.6-1.542-8.054-1.542-8.054Z" transform="translate(-129.096 -32.472)" fill="#1a3560"/>
      <path id="Path_3799" data-name="Path 3799" d="M135.6,101.614l14.908,100.758,4.712-.171,8.739-70.257s9.682-21.677,8.654-30.073C171.5,93.56,135.6,101.614,135.6,101.614Z" transform="translate(-126.604 -16.119)" fill="#c6c7c7"/>
      <path id="Path_3800" data-name="Path 3800" d="M155.673,41.9c-4.541-.685-9.339-2.142-13.794,5.655s-3.684,11.652-3.17,21.334,1.542,14.565-3.17,21.591-.257,11.567-.257,11.567,19.021,7.2,26.989-.6c1.885-1.8,7.283,2.742,9.253,1.542C183.6,95.625,164.327,43.275,155.673,41.9Z" transform="translate(-126.285 -7.987)" fill="#5eaadb"/>
      <path id="Path_3801" data-name="Path 3801" d="M169.258,65.9s4.37,21.677,3.856,35.985c0,0-2.656-.942-4.627,0C166.6,102.828,169.258,65.9,169.258,65.9Z" transform="translate(-131.217 -11.506)" fill="#3b96d2"/>
      <path id="Path_3802" data-name="Path 3802" d="M159.238,71.8s.685,21.505-6.512,31.358L146.9,101.7C146.986,101.7,155.211,93.991,159.238,71.8Z" transform="translate(-128.222 -12.351)" fill="#3b96d2"/>
      <path id="Path_3803" data-name="Path 3803" d="M134.9,99.49s8.911-8.225,14.48-24.59c0,0-1.457,22.7-12.081,27.246Z" transform="translate(-126.503 -12.795)" fill="#3b96d2"/>
      <path id="Path_3804" data-name="Path 3804" d="M150.191,43.482c-4.113-.771-6.683,2.57-10.11,9.939-3.513,7.368-10.967,23.39-10.881,25.618.171,2.142,25.19,20.049,27.5,27.16l4.284-3.17s-6.083-9.682-10.2-13.794A166.229,166.229,0,0,1,139.824,76.64s6.769-11.31,10.2-17.136C153.361,53.506,153.79,44.082,150.191,43.482Z" transform="translate(-125.687 -8.28)" fill="#ad704d"/>
      <path id="Path_3805" data-name="Path 3805" d="M165.439,111.528s-4.027,5.74-9.339,5.055l2.056,2.485s8.911-3.684,9.767-7.968Z" transform="translate(-129.54 -17.979)" fill="#aaa"/>
      <path id="Path_3806" data-name="Path 3806" d="M154.9,30c-3.6-4.113-6.512-12-4.969-17.393,1.542-5.483,5.312-6.6,10.367-3.941,4.969,2.57,13.537,16.022,5.655,19.021-1.971.771-4.37.257-6.169,1.628Z" transform="translate(-128.595 -3.112)" fill="#ad704d"/>
      <path id="Path_3807" data-name="Path 3807" d="M149.441,4.2c4.37-2.57,14.651-2.827,16.022,2.313,1.371,5.226-5.569,7.968-9.51,7.625l.257,2.313s-3.341-.343-2.313,2.4,3.684.942,3.684.942,2.056,8.4-4.113,9.425S137.274,11.227,149.441,4.2Z" transform="translate(-127.764 -2.414)" fill="#1a3560"/>
      <path id="Path_3808" data-name="Path 3808" d="M169.1,16.2l4.37,4.113-3.256,2.313Z" transform="translate(-131.401 -4.388)" fill="#ad704d"/>
    </g>
  </g>
</svg>
