<svg xmlns="http://www.w3.org/2000/svg" width="342.654" height="215.366" viewBox="0 0 342.654 215.366">
  <g id="Group_4105" data-name="Group 4105" transform="translate(-0.004 -0.007)">
    <path id="Path_3809" data-name="Path 3809" d="M326.111,158.305c-7.529-1.633-15.875-.363-23.132-.454-18.687-.181-37.283-.816-55.969-1.724-32.566-1.542-65.041-3.628-97.516-7.076C46.354,137.8-37.827,156.4,17.6,177.536c15.421,5.9-29.028,41.365,80.1,49.347,95.792,6.985,126-5.9,173.17-12.428,14.514-2,28.937-4.354,42.544-10.976,8.89-4.354,28.393-12.065,29.209-26.4C343.346,166.107,333.549,159.938,326.111,158.305Z" transform="translate(0 -13.528)" fill="#e7e6e7"/>
    <path id="Path_3810" data-name="Path 3810" d="M130.6,24.245l.544.907.726,1.361,3.447,6.441a4.494,4.494,0,0,0-2.177.907c-1.451,1.089-1.9,2.812-1.179,3.81s2.54.816,3.991-.272c1.361-1.089,1.9-2.721,1.179-3.719l-4.173-7.711,6.168-3.356,3.447,6.441a4.494,4.494,0,0,0-2.177.907c-1.451,1.089-1.9,2.812-1.179,3.81s2.54.816,3.991-.272c1.361-1.089,1.9-2.631,1.27-3.628h0l-4.263-7.8-.726-1.361-.544-.907Z" transform="translate(-12.13 -1.838)" fill="#c6c7c7"/>
    <path id="Path_3811" data-name="Path 3811" d="M85.634,47.1l-.272,1.179L84.908,50l-2.177,8.073a4.568,4.568,0,0,0-2.54-1c-2.086-.181-3.81.816-3.991,2.268-.091,1.451,1.451,2.721,3.447,2.9s3.719-.726,3.991-2.177l2.631-9.706,7.711,2.086L91.8,60.525a4.569,4.569,0,0,0-2.54-1c-2.086-.181-3.81.816-3.991,2.268-.091,1.451,1.451,2.721,3.447,2.9s3.628-.726,3.9-2v-.091l2.631-9.8.454-1.724.272-1.179Z" transform="translate(-7.077 -4.374)" fill="#c6c7c7"/>
    <path id="Path_3812" data-name="Path 3812" d="M105.234,14.161c-1.089-.544-2.086-.907-2.812-1.361l-1.633.544.726,2,.635,2L105.6,27.4a6,6,0,0,0-3.175.726c-2.177,1.179-3.266,3.356-2.449,4.9s3.266,1.724,5.443.544,3.266-3.266,2.54-4.808L103.329,15.7h0a6.7,6.7,0,0,1,3.356,1.814,4.038,4.038,0,0,1,.816,3.719c1-.363,1.633-2,1.089-3.447A6.284,6.284,0,0,0,105.234,14.161Z" transform="translate(-9.26 -1.188)" fill="#aaa"/>
    <path id="Path_3813" data-name="Path 3813" d="M117.124,177.809s1,.635,1.451.272a3.185,3.185,0,0,1,3.991-.726c2.177,1.179,2.812,2.631,4.9,2.812,2.086.091,7.166-.726,8.618.454s3.81,5.715,3.175,8.89-1.542,3.538-2.54,2.086a9.507,9.507,0,0,0-2.268-2.54c-.454-.272-5.987-2.268-7.8-3.266a33.155,33.155,0,0,0-5.08-2.268,45.207,45.207,0,0,0-5.08-1C116.035,182.435,117.124,177.809,117.124,177.809Z" transform="translate(-10.809 -16.431)" fill="#c19075"/>
    <path id="Path_3814" data-name="Path 3814" d="M96.474,96.961A17.46,17.46,0,1,0,116.7,83.173C107.178,81.54,98.107,87.709,96.474,96.961Z" transform="translate(-8.936 -7.7)" fill="#1a3560"/>
    <path id="Path_3815" data-name="Path 3815" d="M113.575,80.871a16.179,16.179,0,1,0,18.687-12.7A15.974,15.974,0,0,0,113.575,80.871Z" transform="translate(-10.526 -6.305)" fill="#1a3560"/>
    <path id="Path_3816" data-name="Path 3816" d="M121.974,66.616c-1.451,8.164,3.538,15.965,11.248,17.326s15.149-4.173,16.6-12.337-3.538-15.965-11.248-17.326S123.516,58.452,121.974,66.616Z" transform="translate(-11.305 -5.022)" fill="#1a3560"/>
    <path id="Path_3817" data-name="Path 3817" d="M121.769,88.48a19.63,19.63,0,1,0,22.678-15.512A19.433,19.433,0,0,0,121.769,88.48Z" transform="translate(-11.281 -6.747)" fill="#1a3560"/>
    <path id="Path_3818" data-name="Path 3818" d="M103.879,95.72a13.135,13.135,0,1,0,15.149-10.341A12.989,12.989,0,0,0,103.879,95.72Z" transform="translate(-9.629 -7.91)" fill="#1a3560"/>
    <path id="Path_3819" data-name="Path 3819" d="M116.479,83.417a13.135,13.135,0,1,0,15.149-10.341A12.989,12.989,0,0,0,116.479,83.417Z" transform="translate(-10.799 -6.765)" fill="#1a3560"/>
    <path id="Path_3820" data-name="Path 3820" d="M132.629,59.9h.726c0,2.812,1.633,6.441,4.536,9.615.726.726,1.451,1.451,2.177,2.086l-.454,2.54A7.33,7.33,0,0,1,125.19,71.6l1-5.806A16.246,16.246,0,0,0,132.629,59.9Z" transform="translate(-11.618 -5.563)" fill="#c19075"/>
    <path id="Path_3821" data-name="Path 3821" d="M118.358,92.359c-.181-1.089-1.27-3.084-3.991-2.086-2.812,1-4.717,3.628-5.08,10.613a72.982,72.982,0,0,1-2.9,16.51c-1.089,3.9,3.9,11.43,6.713,6.8s4.354-16.147,4.626-19.322S118.54,93.084,118.358,92.359Z" transform="translate(-9.866 -8.358)" fill="#c19075"/>
    <path id="Path_3822" data-name="Path 3822" d="M125.9,88.709s9.525-3.266,10.885-3.991-3.538,0,.544-7.983c.091-.091-7.348-4.354-7.983-4.536-.635-.091-1.361,1.633-1.361,1.633A25.455,25.455,0,0,1,125.9,88.709Z" transform="translate(-11.693 -6.705)" fill="#c19075"/>
    <g id="Group_4105-2" data-name="Group 4105" transform="translate(129.207 72.125)">
      <path id="Path_3823" data-name="Path 3823" d="M146.576,80.045s-6.168,23.948-3.447,38.916c2,10.613,5.806,3.447,8.98,2.359a60.47,60.47,0,0,1-.181-6.259c0-8.164.272-15.693,1-20.229,1.089-7.166,1.089-11.7-.363-13.425C151.112,79.773,149.842,78.866,146.576,80.045Z" transform="translate(-142.436 -79.509)" fill="#c19075"/>
      <path id="Path_3824" data-name="Path 3824" d="M150.982,122.429s.272-1.9,2.9,9.162,4.354,30.207,7.166,33.836,3.81,1.451,3.266,1.9c-1.724,1.724-2.449,3.447-4.263,3.084s-5.806-7.62-9.978-20.32c-4.173-12.609-6.713-21.317-5.987-25.218C144.9,120.978,150.619,121.431,150.982,122.429Z" transform="translate(-142.578 -83.431)" fill="#c19075"/>
      <path id="Path_3825" data-name="Path 3825" d="M157.4,169.388s1.814,4.536,2.9,4.9,3.991,0,5.806-.635,3.175-1.451,4.173-1.542,6.441,1.633,8.073,1.724a6.13,6.13,0,0,0,3.084-.272c.907-.363.544-1,.544-1s-.726-.091-3.175-.544a45.37,45.37,0,0,1-9.253-3.628c-2.086-1.179-2.268-1.27-3.447-.816a36.153,36.153,0,0,1-4.989,1.361A21.921,21.921,0,0,1,157.4,169.388Z" transform="translate(-143.826 -87.665)" fill="#c19075"/>
      <path id="Path_3826" data-name="Path 3826" d="M159.4,173.3s.726,2.177,3.991,3.356a7.278,7.278,0,0,0,3.991.635,4.975,4.975,0,0,0,1.633-.181s.181-1.089-1.27-1.179c-.816-.091-2.449-1.179-1.724-1.633C166.657,173.844,159.4,173.3,159.4,173.3Z" transform="translate(-144.011 -88.22)" fill="#c19075"/>
    </g>
    <path id="Path_3827" data-name="Path 3827" d="M117.141,142.954s-2.449-9.253-2.54-14.514.454-14.514.363-14.877-3.538-2.721-3.266-5.08c.272-2.449,3.447-8.89,3.991-10.795.635-1.9.635-8.8.635-8.8A22.98,22.98,0,0,0,128.571,87.8c6.713-2.449,15.058-7.8,15.058-7.8s4.536.454,1.089,20.773-4.445,21.5-4.626,27.486c-.272,8.8,5.08,18.6,5.624,26.034C146.26,161.822,118.865,145.676,117.141,142.954Z" transform="translate(-10.373 -7.43)" fill="#5eaadb"/>
    <path id="Path_3828" data-name="Path 3828" d="M116.284,147.9c-9.615-3.9-15.784-3.538-38.734-1.089-5.261.544-15.875,1.27-21.136,4.263C51.7,153.8,50.336,160.781,74.1,165.407c21.68,4.263,49.71,6.259,56.877.454C138.236,160.146,125.628,151.71,116.284,147.9Z" transform="translate(-4.98 -13.464)" fill="#1a3560"/>
    <path id="Path_3829" data-name="Path 3829" d="M136.307,180.615c-1.451-1.179-6.531-.363-8.618-.454s-2.631-1.542-4.9-2.812c-1.724-1-2.9-.363-3.991.726a1.79,1.79,0,0,1,.635-.181c1.179.181,3.81,2.268,5.715,3.084,2.086.816,5.9,1.542,7.529,2.631,1,.726,1.542,3.175,1.633,5.261a.333.333,0,0,0,.272.091,8.154,8.154,0,0,1,2.268,2.54c1,1.451,1.9,1.089,2.54-2.086C140.117,186.329,137.759,181.794,136.307,180.615Z" transform="translate(-11.034 -16.425)" fill="#289cd7"/>
    <path id="Path_3830" data-name="Path 3830" d="M111.518,180.465S76.594,173.48,68.7,170.4s-20.229-5.08-17.054-13.7c2.9-7.8,11.611-8.708,23.041-3.9s11.611,5.08,20.138,10.341a116.367,116.367,0,0,1,17.145,12.428Z" transform="translate(-4.749 -13.917)" fill="#1a3560"/>
    <path id="Path_3831" data-name="Path 3831" d="M136.223,117.2l1,1-4.173,6.8-6.35.181-1-1.361,3.81-5.171Z" transform="translate(-11.674 -10.885)" fill="#0c1153"/>
    <path id="Path_3832" data-name="Path 3832" d="M114.7,123.268,123.318,121l3.175.272-1.361,2.268,2.812,1.724,3.266-.363,1.814-1.542.181,2.177a4.244,4.244,0,0,1-1.451,1.633c-1,.635-4.9,4.445-4.9,4.445l-2.177-.907-4.808-2.359-3.719,1.451Z" transform="translate(-10.653 -11.238)" fill="#c19075"/>
    <path id="Path_3833" data-name="Path 3833" d="M67.225,173.907a1.576,1.576,0,0,0-.272,1.814c.635,1,1.814,1.724,1.542,2.9s-.454,1.451-1.814,2.449-3.628,2.177-4.989,4.989-3.175,5.443-6.441,5.987c-3.266.454-5.806.272-7.438-.454-1.542-.726-.726-1.542.363-2.086a11.221,11.221,0,0,0,4.989-4.173c1.542-2.449,3.266-4.536,4.354-6.441s2.449-3.991,3.538-5.987C62.236,171,67.225,172.546,67.225,173.907Z" transform="translate(-4.361 -15.976)" fill="#c19075"/>
    <path id="Path_3834" data-name="Path 3834" d="M62.79,181.317c-2.177,2.177-3.356,4.717-6.441,5.987-1.633.635-3.719.726-4.536.181a15.607,15.607,0,0,1-3.538,2.449c-1.089.454-1.9,1.361-.363,2.086s4.173,1,7.438.454c3.266-.454,5.08-3.175,6.441-5.987s3.628-3.991,4.989-4.989,1.542-1.179,1.814-2.449c.181-1-.635-1.724-1.179-2.449C66.6,177.87,64.876,179.231,62.79,181.317Z" transform="translate(-4.371 -16.402)" fill="#289cd7"/>
    <path id="Path_3835" data-name="Path 3835" d="M143.284,151.523s-12.881-18.959-23.313-25.037-37.011-28.211-18.052,10.25c9.8,19.866,16.51,31.84,25.581,34.108C136.481,172.931,152.809,170.754,143.284,151.523Z" transform="translate(-8.849 -10.646)" fill="#2c456d"/>
    <path id="Path_3836" data-name="Path 3836" d="M59.4,169.6s16.328-31.84,20.955-38.916,12.7-21.136,16.056-13.607c3.447,7.529,6.078,13.153-1,23.4s-7.076,10.25-16.056,19.231-11.883,10.7-11.883,10.7Z" transform="translate(-5.517 -10.673)" fill="#2c456d"/>
    <g id="Group_4106" data-name="Group 4106" transform="translate(152.125 95.793)">
      <path id="Path_3837" data-name="Path 3837" d="M191.285,205.111,167.7,185.88l.181-80.28,23.585,19.14Z" transform="translate(-167.7 -105.6)" fill="#b1d0ed"/>
    </g>
    <g id="Group_4107" data-name="Group 4107" transform="translate(152.306 91.076)">
      <path id="Path_3838" data-name="Path 3838" d="M191.485,124.257,167.9,105.117l80.28-4.717,23.585,19.231Z" transform="translate(-167.9 -100.4)" fill="#e1f0fa"/>
    </g>
    <g id="Group_4108" data-name="Group 4108" transform="translate(175.71 110.307)">
      <path id="Path_3839" data-name="Path 3839" d="M274.162,121.6l-.181,80.28L193.7,206.6l.181-80.371Z" transform="translate(-193.7 -121.6)" fill="#bdddf4"/>
    </g>
    <g id="Group_4117" data-name="Group 4117" transform="translate(177.978 0.007)">
      <g id="Group_4113" data-name="Group 4113">
        <path id="Path_3840" data-name="Path 3840" d="M243.607,45.229a12.864,12.864,0,1,1-6.078-16.963A12.751,12.751,0,0,1,243.607,45.229Z" transform="translate(-198.342 -2.51)" fill="#7d8080"/>
        <path id="Path_3841" data-name="Path 3841" d="M250.058,62.438a16.211,16.211,0,1,1-7.62-21.408A16.032,16.032,0,0,1,250.058,62.438Z" transform="translate(-198.352 -3.663)" fill="#7d8080"/>
        <g id="Group_4111" data-name="Group 4111" transform="translate(33.453 36.005)">
          <g id="Group_4110" data-name="Group 4110" transform="translate(0.014 36.724)">
            <g id="Group_4109" data-name="Group 4109" transform="translate(4.72 2.501)">
              <path id="Path_3842" data-name="Path 3842" d="M238.3,83.9s-.454,2.086,9.706,4.717c10.16,2.54,25.672,3.81,25.672,3.81l-22.859-8.164S241.928,81.543,238.3,83.9Z" transform="translate(-238.297 -82.94)" fill="#fcd6b9"/>
              <path id="Path_3843" data-name="Path 3843" d="M268.139,91.887c4.808,1.361,6.168,4.354,7.8,5.624a42.685,42.685,0,0,1,3.266,2.9c-.454-2.359-2-2.812-2.631-3.719-.544-.907-.454-.454,1.27-.091,1,.181,2.177,2.359,3.175,3.719a4.242,4.242,0,0,0,1.451,1.361,20.62,20.62,0,0,0-1.9-3.9,25.818,25.818,0,0,0-3.9-4.717c-.907-.726-4.082-1.724-6.441-2.086C267.594,90.527,264.692,90.89,268.139,91.887Z" transform="translate(-240.922 -83.669)" fill="#dbe4e9"/>
              <path id="Path_3844" data-name="Path 3844" d="M277.4,93.3a32.71,32.71,0,0,1,3.9,2.631c.363.454,1.633,2.994,1.633,2.994a5.93,5.93,0,0,1-1.9-1.542A37.97,37.97,0,0,0,277.4,93.3Z" transform="translate(-241.928 -83.902)" fill="#dbe4e9"/>
            </g>
            <path id="Path_3845" data-name="Path 3845" d="M243.531,80.561S234.1,78.475,233.19,84.1c-.544,3.266,1.27,4.9,4.082,5.533,5.352,1.089,11.43,2,11.43,2l5.08-7.8Z" transform="translate(-233.094 -80.183)" fill="#aaa"/>
          </g>
          <path id="Path_3846" data-name="Path 3846" d="M243.983,72.084l-2.54-25.762s.181-6.713-2.268-6.622c-3.538.181-4.173,5.987-4.445,8.073-.635,4.263-1.542,5.9-1.451,16.6,0,6.622-.454,14.06,0,18.505.272,3.084,3.266-.363,6.35-.635C245.435,81.79,243.983,72.084,243.983,72.084Z" transform="translate(-233.078 -39.699)" fill="#aaa"/>
        </g>
        <path id="Path_3847" data-name="Path 3847" d="M307.4,154.621l8.618,18.687,11.974.272,5.987-1.27-12.972-3.084L314.113,151.9Z" transform="translate(-206.528 -14.115)" fill="#fcd6b9"/>
        <path id="Path_3848" data-name="Path 3848" d="M318.13,178.171l1.542-.363.907-1.9,9.615.454,7.711-1.451s-.181-.635-.544-.816C336,173.363,330.014,173,330.014,173s.635,1.633-.091,2-8.073-.091-9.888-.363c-3.084-.454-4.626-1.179-4.536-.816C315.772,174.451,318.13,178.171,318.13,178.171Z" transform="translate(-207.28 -16.075)" fill="#1a3560"/>
        <path id="Path_3849" data-name="Path 3849" d="M252.855,111.336l28.121-.726,20.954,45.9,8.708-3.447-20.41-55.153s-1.633-3.447-10.16-3.447c-8.255,0-41.637-.907-45.447.181C225.641,97,254.4,103.716,252.855,111.336Z" transform="translate(-199.607 -8.747)" fill="#289cd7"/>
        <path id="Path_3850" data-name="Path 3850" d="M230.407,27.229a12.864,12.864,0,1,1-6.078-16.963A12.741,12.741,0,0,1,230.407,27.229Z" transform="translate(-197.116 -0.838)" fill="#7d8080"/>
        <path id="Path_3851" data-name="Path 3851" d="M245.406,22.316a9.619,9.619,0,0,1-12.881,4.445l-.181-5.171A9.619,9.619,0,0,1,227.9,8.709l1.542-3.266A9.619,9.619,0,0,1,242.322,1L244.5,2.087a9.593,9.593,0,0,1,4.445,12.881Z" transform="translate(-199.052 -0.007)" fill="#7d8080"/>
        <path id="Path_3852" data-name="Path 3852" d="M247.8,8.7c-.363.816-.907,1.542-1.361,2.359-3.628,5.171-9.071,7.711-12.972,6.441a31.055,31.055,0,0,1-4.536,6.168c-1.724,1.9-5.443,2.9-5.443,2.9-2.54,3.628-1.089,13.879,7.892,14.968,5.443.635,4.354-5.08,2.449-8.618-.907-1.633-1.724-3.628-1.542-4.536.726-3.266,1.9-3.719,3.81-4.9a7.776,7.776,0,0,1,6.259.091.824.824,0,0,0,.907,0,8.222,8.222,0,0,0,1.179-1.724l3.447-7.166A6.916,6.916,0,0,0,247.8,8.7Z" transform="translate(-198.63 -0.815)" fill="#fcd6b9"/>
        <path id="Path_3853" data-name="Path 3853" d="M219.2,97.369s4.082.816,5.261,1.27c1.542.544,5.987-.181,5.987-.181s.544-22.134,1.633-29.844,3.084-9.8,3.084-12.246a27.436,27.436,0,0,0-1-7.711c-.635-2.993,1.27-6.985.635-6.168-1.089,1.179-5.171,3.175-8.98-1.089C225.1,40.674,219.2,97.369,219.2,97.369Z" transform="translate(-198.336 -3.851)" fill="#d9ebf9"/>
        <path id="Path_3854" data-name="Path 3854" d="M234.833,32.8s5.624,5.624,5.352,7.529c-.181,1.814.363,9.615-.907,17.961s-2.359,10.341-2.54,16.419,1.179,7.438.726,14.877c-.363,5.806-1.27,10.976-1.27,10.976a4.841,4.841,0,0,1-4.626-1.451c-2-2.177-1.27-22.406-.544-27.4s3.628-18.052,3.447-21.59c-.181-3.447-1.27-11.793-1.9-12.881C230.933,34.524,234.38,33.072,234.833,32.8Z" transform="translate(-199.365 -3.053)" fill="#9c9f9f"/>
        <path id="Path_3855" data-name="Path 3855" d="M235.059,32.2a2.384,2.384,0,0,1-.726.726,19.1,19.1,0,0,0-1.633,1.451s1.089-.544,1.542.454a17.212,17.212,0,0,1,.816,3.9s2.086-3.447,1.542-4.536C235.784,32.291,235.059,32.2,235.059,32.2Z" transform="translate(-199.59 -2.997)" fill="#aaa"/>
        <path id="Path_3856" data-name="Path 3856" d="M224.12,45.243a13.4,13.4,0,1,1-8.89-16.51A13.22,13.22,0,0,1,224.12,45.243Z" transform="translate(-196.362 -2.615)" fill="#7d8080"/>
        <path id="Path_3857" data-name="Path 3857" d="M276.9,159.27l.363,13.063,2.721,3.175,7.076,4.082,5.261-1-9.253-6.894-.726-13.7Z" transform="translate(-203.695 -14.681)" fill="#fcd6b9"/>
        <path id="Path_3858" data-name="Path 3858" d="M277.718,176.655l2.359,1.724.726-.544,6.531,4.173s5.987,1.542,7.166.181c.363-.454-.544-1.179-1.9-2.177a9.58,9.58,0,0,0-1.724-1.089s-.272,1-2.631,1.451c-.726.091-5.443-2.994-7.076-3.81a16.7,16.7,0,0,1-4.173-3.266C276.63,173.662,277.718,176.655,277.718,176.655Z" transform="translate(-203.697 -16.101)" fill="#1a3560"/>
        <path id="Path_3859" data-name="Path 3859" d="M213.949,83.5l3.356,7.983,5.806.726,47.08,2.993s4.173-1.27,6.894,5.352c3.81,9.434-1.179,56.877-1.179,56.877l-6.985-.091L265.2,112.619s-45.265,7.892-58.237,3.9c-4.989-1.542-8.8-10.341-8.073-19.322.544-6.985,5.261-13.425,5.261-13.425Z" transform="translate(-196.442 -7.762)" fill="#289cd7"/>
        <path id="Path_3860" data-name="Path 3860" d="M220.148,95.182S222.325,75.5,223.6,66.154s1-25.037,1.27-27.214a30,30,0,0,1,1.451-5.443s-2.268-5.08-5.261-4.9c-2.631.181-10.885,2.9-14.877,4.536-2.721,1.089-1.27,32.566-1.542,34.2-.907,5.987-3.81,12.79-5.715,17.507a64.942,64.942,0,0,0-2.721,9.343S211.258,92.37,220.148,95.182Z" transform="translate(-196.2 -2.662)" fill="#9c9f9f"/>
        <path id="Path_3861" data-name="Path 3861" d="M223.94,26.8l2.177,2.54S229.2,33.6,228.2,33.059c-1.27-.726-2.721,3.719-2.721,3.719L221.4,28.342Z" transform="translate(-198.541 -2.496)" fill="#aaa"/>
        <g id="Group_4112" data-name="Group 4112" transform="translate(6.933 70.317)">
          <path id="Path_3862" data-name="Path 3862" d="M204.257,79.407s-3.447,2.449,9.525,3.81,32.384.363,32.384.363L216.5,77.956S208.249,76.323,204.257,79.407Z" transform="translate(-203.842 -77.524)" fill="#fcd6b9"/>
          <path id="Path_3863" data-name="Path 3863" d="M238.987,83.869c6.168.816,8.436,3.991,10.795,5.171a39.047,39.047,0,0,1,4.626,2.812c-1-2.54-2.993-2.9-3.9-3.81s-.726-.454,1.542-.363c1.27.091,3.175,2.359,4.626,3.719a5.268,5.268,0,0,0,2.086,1.361,26.949,26.949,0,0,0-3.084-4.082,31.812,31.812,0,0,0-5.715-4.717c-1.27-.635-5.352-1.27-8.345-1.361C238.08,82.509,234.542,83.325,238.987,83.869Z" transform="translate(-206.913 -77.995)" fill="#fcd6b9"/>
          <path id="Path_3864" data-name="Path 3864" d="M250.7,84.1a44.578,44.578,0,0,1,5.352,2.359c.544.454,2.631,3.084,2.631,3.084a6.308,6.308,0,0,1-2.631-1.451A56.459,56.459,0,0,0,250.7,84.1Z" transform="translate(-208.194 -78.135)" fill="#fcd6b9"/>
        </g>
        <path id="Path_3865" data-name="Path 3865" d="M211.729,71.673l4.263-28.665s-1.089-5.9-2.9-7.892c-2.177-2.359-6.35-1.724-6.35-1.724s-4.808,3.991-5.171,26.669c-.272,15.512-1.633,21.862,4.989,22.587,6.259.635,13.335,1,13.335,1L224.61,74.3Z" transform="translate(-196.671 -3.101)" fill="#aaa"/>
      </g>
      <g id="Group_4116" data-name="Group 4116" transform="translate(46.535 60.861)">
        <path id="Path_3866" data-name="Path 3866" d="M247.5,92.789h0V91.7h43.36v1.089h0l-.091.181c-.544.907-1.542,1.089-2.721,1.089H250.312c-1.179,0-2.177-.181-2.721-1.089Z" transform="translate(-247.5 -69.385)" fill="#c6c7c7"/>
        <path id="Path_3867" data-name="Path 3867" d="M257.969,93.007h0l-.091.181a1.847,1.847,0,0,1-.635.544h-6.622c-1.089,0-2.086-.091-2.631-.907l-.091-.181h0V92.1h10.069Z" transform="translate(-247.537 -69.422)" fill="#e6e7e8"/>
        <g id="Group_4114" data-name="Group 4114" transform="translate(16.328 22.587)">
          <rect id="Rectangle_581" data-name="Rectangle 581" width="21.68" height="0.726" fill="#aaa"/>
        </g>
        <g id="Group_4115" data-name="Group 4115" transform="translate(10.704)">
          <path id="Path_3868" data-name="Path 3868" d="M259.3,89.415,264.924,68.1a1.455,1.455,0,0,1,1.27-1h30.479a.729.729,0,0,1,.726,1l-5.624,21.317Z" transform="translate(-259.3 -67.1)" fill="#aaa"/>
          <path id="Path_3869" data-name="Path 3869" d="M278.294,79.2a1.492,1.492,0,0,0,1.451,2,2.7,2.7,0,0,0,2.449-2,1.492,1.492,0,0,0-1.451-2A2.7,2.7,0,0,0,278.294,79.2Z" transform="translate(-261.058 -68.038)" fill="#c6c7c7"/>
        </g>
      </g>
    </g>
  </g>
</svg>
